<svg width="367" height="377" viewBox="0 0 367 377" fill="none" xmlns="http://www.w3.org/2000/svg">
<g style="mix-blend-mode:soft-light">
<path d="M155.739 197.303C177.558 186.16 198.588 173.982 218.925 160.681C239.697 148.036 259.19 132.69 274.949 114.1C307.188 77.3126 335.043 37.5329 365.421 -1.05987L365.862 -0.58661C342.207 42.1788 313.228 82.652 277.516 116.663C259.442 133.34 241.544 150.206 221.882 165.18C201.872 179.591 179.498 190.898 155.896 198.042L155.644 197.392L155.739 197.303Z" fill="#FFFAD7"/>
<path d="M156.824 197.708C149.118 205.955 140.479 212.064 130.687 217.125C120.812 221.909 110.163 225.292 99.1546 225.823C88.1466 226.355 77.228 224.325 66.9976 220.946C56.6662 217.837 47.5665 210.926 37.4424 209.748L31.5131 209.083L37.015 206.253C55.4768 196.824 74.847 187.61 96.0378 183.955C106.636 182.035 117.449 181.863 128.096 183.792C138.649 185.809 148.853 189.92 156.729 197.796L156.824 197.708ZM156.18 197.777C147.66 192.626 137.512 189.524 127.469 188.624C117.339 187.629 107.226 188.741 97.2776 190.408C77.361 194.292 58.042 202.042 38.4581 209.509L38.0307 206.014C49.2013 208.694 57.2725 216.21 67.6231 218.77C77.6769 221.96 88.4892 221.788 98.7027 220.404C109.005 219.116 118.985 216.534 128.651 212.475C138.311 208.6 147.573 202.971 156.186 197.594L156.18 197.777Z" fill="#FFFAD7"/>
<path d="M174.351 191.452C169.825 197.796 166.341 203.169 162.598 208.075C158.754 213.252 155.704 219.281 153.576 225.16C151.353 231.126 150.202 237.863 149.688 244.713C149.174 251.564 149.297 258.528 147.496 265.517L144.715 263.863C149.039 258.061 153.356 252.442 158.033 247.019C162.892 241.603 166.844 235.971 170.347 230.05C173.756 224.216 176.635 217.814 177.597 211.254C178.742 204.701 177.528 197.515 174.439 191.546L174.351 191.452ZM174.465 190.814C180.417 196.059 182.798 203.927 182.713 211.616C182.533 219.394 180.076 226.818 176.364 233.465C172.652 240.112 167.691 245.8 162.661 250.844C157.625 256.071 152.412 261.109 147.111 266.053L141.053 271.702L144.235 264.487C146.919 258.445 147.345 251.5 147.398 244.725C147.268 237.944 146.508 230.865 148.227 223.599C150.123 216.522 153.822 210.241 158.682 204.824C164.09 199.427 169.662 194.585 174.282 190.808L174.465 190.814Z" fill="#FFFAD7"/>
<path d="M219.257 166.92C215.994 171.202 213.563 175.238 211.057 178.813C208.47 182.112 206.033 186.331 203.874 190.468C199.372 198.736 196.227 207.509 193.807 216.491C191.387 225.473 190.235 234.865 190.54 244.492C190.573 254.017 191.793 263.675 191.177 273.453L188.004 272.518C196.087 253.477 212.57 240.407 219.586 223.069C223.002 214.397 224.52 205.017 224.121 195.479C223.904 185.947 221.776 176.074 219.345 167.014L219.257 166.92ZM219.371 166.283C224.64 175.35 227.79 184.801 229.174 195.015C230.469 205.133 229.638 215.819 225.729 225.481C221.996 235.333 215.306 243.342 208.906 250.902C202.507 258.463 195.848 265.557 191.069 273.907L186.196 282.345L187.809 272.877C189.503 263.687 189.11 253.966 188.25 244.503C187.573 235.047 186.637 225.124 188.54 215.208C190.349 205.381 194.422 196.274 199.566 187.936C204.156 179.763 213.489 172.122 219.371 166.283Z" fill="#FFFAD7"/>
<path d="M257.48 134.462C249.528 141.877 244.042 152.125 241.659 162.665C238.999 173.287 239.53 184.295 241.071 195.247C242.429 206.192 244.972 217.27 248.538 227.926C251.914 238.759 256.218 249.258 259.595 260.09L256.289 260.341C256.717 248.085 262.961 237.13 268.346 227.153C274.009 217.094 277.937 206.883 279.052 195.932C280.167 184.982 278.91 173.765 274.972 163.279C271.217 152.8 264.787 142.868 257.574 134.374L257.48 134.462ZM257.594 133.825C267.04 141.298 274.41 150.53 279.616 161.427C284.639 172.317 286.955 184.669 285.618 196.711C284.831 208.772 279.659 220.496 273.549 230.265C267.703 240.318 261.239 249.708 259.664 260.734L258.316 270.486L256.264 261.073C253.991 250.096 250.432 239.257 246.311 228.764C242.467 218.19 237.987 207.502 235.727 196.159C233.468 184.816 233.523 172.73 236.941 161.402C240.447 150.168 247.037 139.775 257.594 133.825Z" fill="#FFFAD7"/>
<path d="M322.662 61.6436C320.972 75.9624 318.883 91.1831 318.183 105.994C317.205 120.888 317.419 135.731 317.911 150.492C318.491 165.348 319.343 180.305 322.219 194.967C324.818 209.71 329.171 224.057 334.64 237.893L331.625 237.696C337.63 223.07 343.446 208.62 347.724 193.659C352.089 178.793 354.089 163.477 353.433 148.161C352.595 132.838 349.372 117.615 343.549 103.4C337.91 89.1918 328.396 75.7638 322.757 61.5553L322.662 61.6436ZM322.593 61.0001C331.267 74.8567 341.021 86.6446 348.199 101.365C355.201 115.895 359.225 131.788 360.127 147.937C361.211 164.093 358.352 180.385 353.425 195.598C348.498 210.812 341.408 225.033 334.595 239.173L332.815 242.958L331.574 239.159C327.038 224.806 323.241 210.296 319.91 195.527C316.668 180.853 313.798 166.008 312.587 150.856C311.281 135.791 311.906 120.519 313.345 105.551C315.155 90.4119 317.584 75.9357 322.681 61.0948L322.593 61.0001Z" fill="#FFFAD7"/>
<path d="M318.965 62.6136C311.255 52.637 301.487 43.8706 290.728 37.2676C280.07 30.3933 268.144 25.7642 256.002 22.0434C243.86 18.3225 231.226 15.5919 218.345 14.6842C205.471 13.5936 192.539 14.1493 179.601 14.888L180.712 11.9047C200.714 29.179 223.026 43.237 246.418 55.2264C258.117 61.1297 269.917 66.7618 282.564 69.1266C294.757 71.3839 309.322 71.2515 318.971 62.4306L318.965 62.6136ZM319.602 62.7274C310.867 74.236 295.058 75.8818 281.83 74.4125C268.155 72.6529 255.332 67.443 243.362 61.4387C219.327 49.5183 196.883 33.9904 178.326 14.6603L175.502 11.6312L179.526 11.7717L218.416 12.6719C231.398 13.3084 244.563 13.9513 257.367 17.0542C282.881 23.3483 307.431 38.8583 319.507 62.8157L319.602 62.7274Z" fill="#FFFAD7"/>
<path d="M260.149 131.442C255.252 122.204 248.506 113.452 240.599 106.491C232.792 99.258 223.736 93.7218 214.491 88.3621C205.245 83.0024 195.621 77.9958 185.707 73.4369C175.887 68.7898 165.77 64.7735 155.464 60.9336L157.654 58.5374C169.916 77.1897 184.72 93.8245 201.62 108.151C210.164 115.227 218.904 121.942 228.724 126.59C238.367 131.047 249.79 134.377 260.156 131.259L260.149 131.442ZM260.78 131.738C250.041 137.682 237.489 135.229 226.722 131.465C215.786 127.328 206.03 120.852 197.221 113.493C179.596 98.9571 164.943 80.5877 154.657 60.4475L152.344 55.8793L156.847 58.0513C166.572 62.7867 176.392 67.4338 186.509 71.4502C196.436 75.6432 207.039 78.8524 216.94 83.7771C236.472 93.5255 254.961 109.556 260.78 131.738Z" fill="#FFFAD7"/>
<path d="M214.708 168.684C212.699 160.647 208.104 153.251 202.076 147.546C196.237 141.664 188.776 137.649 181.309 133.817C173.754 129.89 166.015 125.956 157.986 122.471C150.059 118.714 142.124 115.14 134.803 109.756L137.264 107.461C147.66 121.835 157.318 136.367 169.349 148.51C175.37 154.398 182.055 159.668 189.724 162.958C197.292 166.519 206.218 167.93 214.525 168.678L214.708 168.684ZM215.149 169.157C205.932 170.85 196.969 170.537 188.094 167.663C179.308 164.884 171.249 159.657 164.88 153.207C151.771 140.478 142.701 124.867 134.545 109.289L129.565 99.7741L137.189 107C143.305 112.8 150.936 117.188 158.978 120.307C167.013 123.61 175.465 125.462 183.677 128.954C191.8 132.351 199.683 137.389 205.673 144.192C211.568 151.083 215.847 159.657 215.149 169.157Z" fill="#FFFAD7"/>
<path d="M173.021 190.215C171.087 182.638 167.034 175.445 161.738 169.765C156.543 163.814 150.009 159.465 143.299 154.926C136.678 150.482 129.494 146.385 122.412 142.017C115.418 137.743 107.945 134.094 100.465 130.627L102.573 127.954C108.696 133.571 114.717 139.459 120.07 146.148C125.423 152.837 129.848 159.86 134.564 166.435C139.469 172.834 144.468 179.144 150.806 183.853C156.961 188.555 165.116 191.038 173.021 190.215ZM173.557 190.6C165.373 194.16 155.811 192.636 148.092 188.154C140.372 183.671 134.275 177.323 129.2 170.552C123.847 163.863 119.895 156.398 115.268 149.918C110.552 143.343 105.281 136.931 100.105 130.432L93.5232 122.234L102.302 127.853C109.201 132.215 116.1 136.577 123.485 140.131C130.58 144.134 138.654 146.339 146.115 150.354C153.487 154.275 160.348 159.734 165.695 166.606C170.763 173.56 174.324 181.743 173.74 190.606L173.557 190.6Z" fill="#FFFAD7"/>
<path d="M155.675 199.133C142.407 204.073 129.016 202.048 116.419 200.876C103.917 199.615 90.6635 198.877 79.2681 205.256C90.0583 197.849 103.993 197.42 116.622 197.677C129.346 197.847 142.422 198.395 153.224 193.278L155.764 199.227L155.675 199.133Z" fill="#FFFAD7"/>
<path d="M178.477 188.665C177.672 198.619 172.54 206.591 167.888 213.938C163.235 221.285 158.394 228.808 157.532 237.753C157.296 228.77 161.349 220.211 165.012 212.372C168.768 204.444 172.349 196.327 172.075 188.442L178.572 188.577L178.477 188.665Z" fill="#FFFAD7"/>
<path d="M324.541 62.8999C329.37 71.4938 330.678 81.2468 329.91 90.1031C329.503 99.1552 328.824 108.106 328.612 116.799C328.182 134.367 329.94 152.195 333.642 169.449C328.836 152.339 325.973 134.656 325.407 116.778C325.171 107.795 325.295 99.0083 325.141 90.3029C325.448 81.5221 323.547 73.0305 319.203 66.2851L324.724 62.9064L324.541 62.8999Z" fill="#FFFAD7"/>
<path d="M221.157 164.971C220.944 176.319 215.584 185.565 211.246 194.388C206.82 203.117 202.64 212.678 204.213 222.715C201.536 212.823 204.834 202.315 208.364 193.005C211.894 183.696 215.797 174.216 214.741 165.113L221.251 164.883L221.157 164.971Z" fill="#FFFAD7"/>
<path d="M214.039 169.485C208.815 169.577 204.306 167.588 200.737 164.899C196.985 162.204 194.173 158.809 191.632 155.515C186.645 148.839 182.321 141.545 174.86 137.53C182.908 140.466 188.431 147.528 194.181 153.315C199.654 159.184 206.995 164.019 213.625 162.968L214.133 169.397L214.039 169.485Z" fill="#FFFAD7"/>
<path d="M173.555 193.256C167.417 193.316 163.811 189.069 161.819 185.794C159.102 182.311 157.381 179.137 154.834 176.026C150.011 169.905 144.437 164.307 138.011 159.504C144.929 163.317 151.443 168.215 157.2 173.819C160.126 176.577 162.85 179.878 165.322 182.528C167.692 185.45 170.738 187.388 172.959 186.733L173.467 193.161L173.555 193.256Z" fill="#FFFAD7"/>
<path d="M256.104 134.505C254.579 130.972 251.754 127.943 248.456 125.355C245.063 122.856 240.825 120.968 237.06 118.638C229.24 114.427 221.351 109.573 214.692 103.571C222.114 108.684 230.042 112.441 238.626 115.763C242.864 117.651 247.033 118.895 251.164 121.237C255.2 123.668 259.211 126.83 261.89 131.411L256.199 134.417L256.104 134.505Z" fill="#FFFAD7"/>
<path d="M261.367 130.66C263.686 137.701 263.43 145.018 262.557 151.673L259.123 171.334C257.294 184.366 257.837 197.664 260.771 210.679C256.821 197.903 255.092 184.472 255.931 170.948L257.813 151.141C258.314 144.656 257.806 138.228 255.43 132.834L261.462 130.572L261.367 130.66Z" fill="#FFFAD7"/>
<path d="M318.812 67.0041C302 68.5233 286.567 62.0317 272.812 54.683C258.969 47.2396 245.99 38.6359 231.042 33.9929C246.306 37.4564 260.13 45.4486 274.289 51.7125C288.265 57.97 303.479 62.897 318.033 60.4748L318.907 66.9158L318.812 67.0041Z" fill="#FFFAD7"/>
</g>
</svg>
