<svg width="414" height="398" viewBox="0 0 414 398" fill="none" xmlns="http://www.w3.org/2000/svg">
<g opacity="0.4">
<path d="M352.859 196.319C358.189 195.077 363.818 194.596 369.422 195.961C375.05 197.187 380.307 200.628 383.545 205.509C386.887 210.194 388.393 216.919 385.506 222.269C384.294 224.841 381.72 227.042 378.963 227.79C376.206 228.538 375.662 230.51 374.703 233.266C372.485 239.723 364.087 241.448 358.506 239.091C352.602 236.965 348.153 232.095 345.861 226.661C343.65 221.169 342.674 215.528 343.369 209.669C344.319 203.995 347.16 198.069 352.663 196.215L352.859 196.319ZM352.986 196.838C347.783 198.6 346.394 205.196 346.876 209.972C347.53 214.989 348.795 220.181 350.891 224.657C352.93 229.053 356.111 233 360.412 234.929C364.517 236.754 370.122 236.411 372.443 232.318C373.044 231.281 373.575 229.805 374.637 228.56C375.699 227.315 377.303 226.658 378.583 226.232C381.179 225.6 383.141 224.079 384.192 221.623C386.352 216.791 383.656 211.645 380.349 208.033C377.064 204.282 373.087 201.269 368.44 198.856C363.851 196.523 358.281 195.377 352.928 196.758L352.986 196.838Z" fill="#FFFAD7"/>
<path d="M354.622 234.671C355.566 236.679 354.296 238.316 353.488 239.745C352.276 241.463 349.819 242.119 348.308 242.222C347.05 242.509 345.366 242.37 344.42 242.923C343.278 243.372 341.743 244.467 339.46 244.511C334.938 244.324 332.553 241.15 330.871 238.45C329.131 235.669 327.829 232.82 326.47 229.889C325.192 226.901 324.052 223.936 324.205 220.049C324.472 216.324 326.286 212.715 328.825 210.294C333.96 205.534 340.144 203.439 346.293 201.978L346.581 202.382C341.676 206.612 336.299 209.838 332.548 213.976C330.712 216.016 329.292 218.126 328.818 220.536C328.482 222.97 328.803 226.154 329.089 229.118C329.514 232.106 330.354 235.163 332.163 237.528C333.834 239.871 337.201 241.003 339.001 240.451C339.82 240.232 341.008 239.506 342.751 238.873C344.735 238.067 346.292 238.541 348.079 238.485C349.567 238.52 350.594 238.763 351.505 237.991C352.555 237.242 354.009 236.205 354.137 235.017L354.541 234.729L354.622 234.671Z" fill="#FFFAD7"/>
<path d="M385.835 214.357C387.15 214.15 388.269 212.986 389.146 211.995C390.162 211.027 390.024 210.15 390.175 208.824C390.096 206.321 390.191 201.5 392.05 199.321C393.423 197.488 393.437 194.431 391.547 192.123C389.714 189.896 386.682 188.891 383.775 188.404C380.684 188.172 377.651 188.02 374.745 187.533C371.839 187.047 368.771 186.676 366.187 186.813C360.974 186.509 356.946 190.601 353.425 195.916L352.952 195.766C353.346 192.56 354.236 189.365 356.406 186.599C358.519 183.751 362.338 181.758 365.856 181.564C369.397 181.232 372.453 182.099 375.59 182.909C378.727 183.718 381.783 184.585 384.631 185.844C387.536 187.184 390.476 188.743 392.782 191.121C395.052 193.279 397.265 197.064 395.82 201.019C394.296 204.178 394.733 205.816 393.912 209.449C393.634 211.11 392.329 213.381 390.702 214.176C389.156 214.913 387.391 215.685 385.603 214.888L385.754 214.415L385.835 214.357Z" fill="#FFFAD7"/>
<path d="M390.165 188.478C390.881 187.602 390.755 186.229 390.721 185.156C390.653 183.864 390.284 183.518 389.512 182.607C387.783 181.037 385.963 177.46 385.722 175.072C385.285 172.581 385.068 170.055 382.831 168.969C380.732 167.906 377.883 168.354 375.657 169.333C371.295 171.591 367.833 175.28 364.232 178.945C360.758 182.276 358.079 186.381 355.677 191.385L355.181 191.373C354.342 185.755 356.469 179.851 360.347 175.379C364.19 171.54 368.91 167.564 374.862 166.853C377.827 166.567 380.583 166.672 383.42 167.574C386.395 168.498 388.527 171.487 389.621 173.875C390.784 176.702 391.129 178.04 392.754 180.659C393.618 181.871 393.917 184.34 393.27 185.654C392.761 186.992 392.045 188.721 390.269 189.135L389.981 188.731L390.165 188.478Z" fill="#FFFAD7"/>
<path d="M339.197 205.699C337.099 202.929 335.51 199.676 334.924 195.95C334.257 192.282 335.091 188.153 337.492 184.856C340.112 181.524 344.023 179.831 347.76 179.603C351.498 179.375 355.026 180.392 358.162 182.055C354.621 182.387 351.323 182.547 348.404 183.41C345.543 184.354 342.97 185.701 341.469 187.869C339.772 189.932 339.067 192.873 338.776 195.883C338.544 198.974 338.98 202.319 339.254 205.78L339.197 205.699Z" fill="#FFFAD7"/>
<path d="M352.848 196.815C355.138 203.956 359.205 210.683 364.507 216.408C358.062 211.986 352.449 205.996 348.371 198.912L352.905 196.896L352.848 196.815Z" fill="#FFFAD7"/>
<path d="M355.297 188.974C358.469 190.003 362.99 190.19 367.026 190.723C371.04 191.395 375.711 191.963 378.43 195.264C375.156 192.724 370.762 193.056 366.829 193.18C362.676 193.339 358.985 194.144 354.072 193.748L355.24 188.893L355.297 188.974Z" fill="#FFFAD7"/>
<path d="M359.951 180.292C365.489 178.658 371.198 178.119 376.584 178.665C371.278 179.769 366.306 181.853 362.048 184.768L359.951 180.292Z" fill="#FFFAD7"/>
<path d="M340.374 204.616C342.333 207.362 341.052 208.641 340.913 209.472L340 211.951C339.468 213.427 339.456 214.776 339.732 216.53C340.144 220.013 340.996 223.428 341.686 226.958C340.234 223.727 338.564 220.531 337.298 217.047C336.641 215.444 336.02 213.206 336.367 211.13L336.692 208.339C336.969 207.531 336.312 206.781 336.934 208.166L340.316 204.535L340.374 204.616Z" fill="#FFFAD7"/>
<path d="M244.235 69.6623C239.011 68.1479 233.868 65.7224 229.638 61.6712C225.384 57.7584 222.539 52.2317 222.105 46.326C221.647 40.5587 223.612 33.9164 228.689 30.7825C231.032 29.1116 234.4 28.5371 237.064 29.1963C239.843 30.0171 241.309 28.484 243.479 26.5708C248.706 22.1106 256.721 24.8033 260.397 29.6154C264.431 34.4162 265.845 40.8415 265.149 46.7003C264.373 52.6168 262.42 57.9096 258.853 62.6477C255.193 67.0859 249.805 70.8079 244.154 69.7199L244.235 69.6623ZM244.385 69.1895C249.759 70.2311 254.226 65.2167 256.178 60.7774C258.096 56.119 259.61 50.895 260.063 46.0626C260.516 41.2302 259.643 36.2469 256.935 32.4504C254.342 28.8155 249.28 26.3324 245.173 28.7749C244.065 29.4431 242.992 30.3305 241.469 30.9293C239.946 31.5281 238.147 31.227 236.901 31.0186C234.318 30.3018 231.85 30.6 229.807 32.1788C225.584 35.3133 225.326 41.1032 226.384 45.8329C227.338 50.7585 229.354 55.2927 232.107 59.6659C235.023 63.9239 239.218 67.7559 244.465 69.1319L244.385 69.1895Z" fill="#FFFAD7"/>
<path d="M261.904 35.4871C262.055 33.3072 264.04 32.5011 265.39 31.66C267.316 30.7732 269.704 31.386 271.076 32.1136C272.298 32.4604 273.762 33.488 274.754 33.5117C275.942 33.6393 277.811 33.5252 279.909 34.5877C283.702 37.0008 284.184 40.9227 284.286 44.1407C284.387 47.3588 284.132 50.5881 283.818 53.7367C283.424 56.9429 282.891 60.126 280.847 63.4118C278.746 66.6169 275.342 68.6792 271.985 69.6112C265.179 71.1754 258.698 69.9485 252.609 68.076L252.621 67.5801C258.942 66.3616 265.217 66.2735 270.42 64.5122C272.981 63.6604 275.289 62.6238 276.962 60.6987C278.417 58.8081 279.837 55.8448 281.073 53.1351C282.194 50.2639 282.98 47.2656 282.556 44.278C282.327 41.3944 279.987 38.7977 278.073 38.335C277.266 38.0577 275.893 38.1837 274.036 37.8018C271.879 37.5121 270.796 36.3349 269.228 35.5034C267.937 34.7183 267.199 34.0257 265.965 34.1748C264.65 34.3816 262.839 34.5765 262.204 35.395L261.708 35.3831L261.904 35.4871Z" fill="#FFFAD7"/>
<path d="M224.717 37.5156C223.518 37.0304 221.88 37.4676 220.68 37.8359C219.342 38.181 219.064 38.9883 218.245 40.0604C217.101 42.2165 214.619 46.4248 211.839 47.3111C209.773 48.1747 208.18 50.8957 208.685 53.8257C209.133 56.6749 211.219 59.0869 213.537 60.9684C216.015 62.7348 218.655 64.3859 220.973 66.2674C223.29 68.149 225.745 70.0537 228.12 71.1626C232.478 74.0259 237.935 72.4493 243.738 69.6503L244.027 70.0542C242.179 72.5905 239.664 74.8725 236.433 76.3237C233.203 77.7749 228.901 77.5529 225.684 75.9476C222.443 74.4806 220.196 72.1838 217.948 69.8871C215.62 67.648 213.453 65.2936 211.586 62.8472C209.742 60.2623 208.003 57.4815 207.128 54.2053C206.207 51.2058 206.233 46.7999 209.395 44.0569C212.303 41.9827 212.777 40.4259 215.224 37.7055C216.229 36.3797 218.582 35.0664 220.405 35.2291C222.089 35.3686 224.049 35.5544 225.202 37.1699L224.798 37.458L224.717 37.5156Z" fill="#FFFAD7"/>
<path d="M208.014 57.8392C206.952 58.2307 206.386 59.4875 205.867 60.4676C205.243 61.6436 205.45 62.1051 205.68 63.2817C206.44 65.5429 206.126 69.545 205.259 71.7474C204.37 74.0882 203.342 76.4059 204.701 78.4829C206.084 80.4215 208.679 81.4959 211.135 81.6936C216.072 81.9506 220.871 80.4774 225.785 79.1657C230.457 78.0269 234.876 75.8499 239.319 72.681L239.607 73.0849C237.677 78.2393 232.853 82.4114 227.27 84.3224C222.055 85.7261 216.034 86.8525 210.395 84.4151C207.686 83.1792 205.299 81.7128 203.386 79.5431C201.277 77.2696 200.887 73.6476 201.188 70.995C201.617 68.008 201.987 66.6472 201.862 63.5676C201.679 62.1142 202.707 59.7965 203.838 58.9899C204.992 58.0448 206.388 56.927 208.083 57.424L207.933 57.8968L208.014 57.8392Z" fill="#FFFAD7"/>
<path d="M260.821 68.312C261.315 71.7379 260.989 75.3825 259.695 78.8649C258.401 82.3473 255.723 85.5982 251.893 87.2335C248.005 88.788 243.668 88.3468 240.394 86.6607C236.981 84.9514 234.422 82.3892 232.648 79.3892C235.807 80.9138 238.828 82.4152 241.769 83.1207C244.652 83.7454 247.627 83.8166 250.016 82.7224C252.462 81.7091 254.597 79.5767 256.421 77.1788C258.129 74.6194 259.435 71.4945 260.959 68.3352L260.821 68.312Z" fill="#FFFAD7"/>
<path d="M244.523 69.2126C246.027 61.9241 245.998 54.0233 244.134 46.4557C247.498 53.5629 249.372 61.488 249.494 69.6887L244.523 69.2126Z" fill="#FFFAD7"/>
<path d="M238.452 74.8832C236.17 72.3673 232.435 70.0349 229.161 67.4953C226.106 64.9212 222.325 62.0122 221.531 57.8248C223.086 61.7128 227.052 63.5147 230.5 65.4432C234.166 67.3371 237.81 68.516 241.753 71.3098L238.371 74.9408L238.452 74.8832Z" fill="#FFFAD7"/>
<path d="M232.325 79.6199C226.305 78.1857 220.055 76.4284 214.936 73.011C220.748 74.8372 226.861 74.8643 232.801 74.649L232.325 79.6199Z" fill="#FFFAD7"/>
<path d="M259.264 68.6917C258.885 65.4273 260.685 64.8749 261.158 64.1716L263.143 62.512C264.355 61.6478 265.002 60.3333 265.718 58.6037C267.104 55.4212 268.041 51.9501 269.173 48.5829C268.871 52.0891 268.626 55.676 268.082 59.355C267.862 61.0964 267.214 63.2644 265.944 64.9014L264.224 67.1033C263.578 67.5642 263.831 68.6024 263.924 67.1953L259.206 68.6109L259.264 68.6917Z" fill="#FFFAD7"/>
<path d="M254.062 86.1737C251.555 109.655 242.221 132.279 229.128 151.855C215.506 171.2 199.278 188.26 183.015 205.1C149.821 238.527 111.649 265.999 73.5226 293.194L73.2345 292.79C107.742 260.864 145.984 233.83 181.136 203.15C198.966 187.994 213.973 169.734 225.727 149.65C237.989 129.935 247.842 108.892 253.647 86.1042L254.12 86.2545L254.062 86.1737Z" fill="#FFFAD7"/>
<path d="M338.621 186.61C326.224 183.753 314.057 181.219 301.682 179.077C289.424 176.243 276.691 174.966 264.141 176.849C239.11 180.201 215.253 186.736 191.476 195.775L191.187 195.371C212.396 180.852 238.445 173.972 264.027 174.127C276.841 174.493 289.413 174.178 302.296 174.983C315.006 176.398 327.541 180.132 338.852 186.08L338.702 186.552L338.621 186.61Z" fill="#FFFAD7"/>
<path d="M235.873 137.903C245.356 134.795 255.082 131.515 262.641 125.026C271.273 117.65 276.274 106.892 284.572 99.3888C274.548 101.055 264.708 104.174 256.411 109.97C248.114 115.766 241.361 124.239 235.954 137.846L235.873 137.903Z" fill="#FFFAD7" stroke="#141414" stroke-width="2.13442" stroke-miterlimit="10"/>
<path d="M236.959 135.666C244.45 127.886 252.966 121.202 262.185 115.845C253.542 122.01 245.764 129.386 239.195 137.606L236.959 135.666Z" fill="#FFFAD7"/>
<path d="M225.589 150.48C228.477 143.423 231.469 136.17 230.632 128.846C229.68 120.506 223.768 112.901 222.435 104.711C217.967 111.433 214.894 118.743 214.774 126.263C214.654 133.783 217.648 141.398 225.646 150.561L225.589 150.48Z" fill="#FFFAD7" stroke="#141414" stroke-width="2.13442" stroke-miterlimit="10"/>
<path d="M225.589 150.48C228.477 143.423 231.469 136.17 230.632 128.846C229.68 120.506 223.768 112.901 222.435 104.711C217.967 111.433 214.894 118.743 214.774 126.263C214.654 133.783 217.648 141.398 225.646 150.561L225.589 150.48Z" fill="#FFFAD7" stroke="#141414" stroke-width="2.13442" stroke-miterlimit="10"/>
<path d="M225.013 148.819C222.976 141.009 222.497 132.82 223.46 124.942C223.489 132.843 225.087 140.722 227.874 147.875L225.013 148.819Z" fill="#FFFAD7"/>
<path d="M197.081 196.286C204.682 195.495 212.503 194.67 219.26 197.65C226.963 200.931 232.69 208.789 240.069 212.3C232.351 214.637 224.45 215.52 217.231 213.6C209.954 211.6 203.545 206.544 197 196.344L197.081 196.286Z" fill="#FFFAD7" stroke="#141414" stroke-width="3.55737" stroke-miterlimit="10"/>
<path d="M197.081 196.286C204.682 195.495 212.503 194.67 219.26 197.65C226.963 200.931 232.69 208.789 240.069 212.3C232.351 214.637 224.45 215.52 217.231 213.6C209.954 211.6 203.545 206.544 197 196.344L197.081 196.286Z" fill="#FFFAD7" stroke="#141414" stroke-width="2.13442" stroke-miterlimit="10"/>
<path d="M202.271 195.874C208.127 200.838 214.999 204.833 222.46 207.433C214.583 206.471 206.684 203.939 199.454 199.955L202.271 195.874Z" fill="#FFFAD7"/>
<path d="M292.629 178.345C293.5 185.888 294.464 193.732 298.809 199.652C303.706 206.518 312.608 210.284 317.713 216.758C318.341 208.754 317.458 200.852 313.945 194.218C310.431 187.583 304.045 182.389 292.629 178.345Z" fill="#FFFAD7" stroke="#141414" stroke-width="2.13442" stroke-miterlimit="10"/>
<path d="M292.629 178.345C293.5 185.888 294.464 193.732 298.809 199.652C303.706 206.518 312.608 210.284 317.713 216.758C318.341 208.754 317.458 200.852 313.945 194.218C310.431 187.583 304.045 182.389 292.629 178.345Z" fill="#FFFAD7" stroke="#141414" stroke-width="2.13442" stroke-miterlimit="10"/>
<path d="M293.816 179.325C300.179 185.512 305.445 192.724 309.165 200.674C304.58 193.22 298.679 186.826 291.877 181.562L293.816 179.325Z" fill="#FFFAD7"/>
<path d="M141.642 241.071C153.491 235.3 165.721 229.38 177.635 230.022C191.095 230.78 202.727 239.911 215.898 241.12C204.324 249.497 192.048 255.694 179.775 256.771C167.559 257.927 155.475 253.629 141.642 241.071Z" fill="#FFFAD7" stroke="#141414" stroke-width="3.55737" stroke-miterlimit="10"/>
<path d="M141.642 241.071C153.491 235.3 165.721 229.38 177.635 230.022C191.095 230.78 202.727 239.911 215.898 241.12C204.324 249.497 192.048 255.694 179.775 256.771C167.559 257.927 155.475 253.629 141.642 241.071Z" fill="#FFFAD7" stroke="#141414" stroke-width="3.55737" stroke-miterlimit="10"/>
<path d="M144.827 239.043C156.52 243.134 169.264 244.768 182.009 243.842C169.562 246.383 156.379 246.525 143.601 243.817L144.908 238.985L144.827 239.043Z" fill="#FFFAD7"/>
<path d="M114.365 257.846C108.756 245.882 103.054 233.617 103.835 221.726C104.732 208.29 114.059 196.762 115.544 183.637C123.76 195.327 129.715 207.776 130.653 220.025C131.59 232.275 127.096 244.256 114.365 257.846Z" fill="#FFFAD7" stroke="#141414" stroke-width="3.55737" stroke-miterlimit="10"/>
<path d="M114.365 257.846C108.756 245.882 103.054 233.617 103.835 221.726C104.732 208.29 114.059 196.762 115.544 183.637C123.76 195.327 129.715 207.776 130.653 220.025C131.59 232.275 127.096 244.256 114.365 257.846Z" fill="#FFFAD7" stroke="#141414" stroke-width="3.55737" stroke-miterlimit="10"/>
<path d="M112.279 254.581C116.508 242.911 118.339 230.271 117.632 217.491C119.954 229.972 119.876 243.19 117.03 255.945L112.279 254.581Z" fill="#FFFAD7"/>
<path d="M149.712 229.831C167.403 197.224 175.572 158.614 169.875 121.24C173.681 139.731 173.738 158.947 171.026 177.699C168.234 196.51 162.594 214.914 154.105 232.06L149.654 229.75L149.712 229.831Z" fill="#FFFAD7"/>
<path d="M244.983 176.133C251.929 172.885 258.955 169.579 263.365 163.631C268.272 156.84 269.178 147.176 273.727 140.397C265.859 142.352 258.637 145.554 253.466 150.948C248.295 156.343 245.372 164.034 244.983 176.133Z" fill="#FFFAD7" stroke="#141414" stroke-width="2.13442" stroke-miterlimit="10"/>
<path d="M244.983 176.133C251.929 172.885 258.955 169.579 263.365 163.631C268.272 156.84 269.178 147.176 273.727 140.397C265.859 142.352 258.637 145.554 253.466 150.948C248.295 156.343 245.372 164.034 244.983 176.133Z" fill="#FFFAD7" stroke="#141414" stroke-width="2.13442" stroke-miterlimit="10"/>
<path d="M244.846 174.403C248.668 167.289 253.863 160.902 259.841 155.785C254.462 161.572 250.328 168.42 247.475 175.696L244.765 174.46L244.846 174.403Z" fill="#FFFAD7"/>
<path d="M258.017 175.611C263.011 175.949 268.144 176.31 272.055 173.763C276.509 170.952 278.982 164.679 283.263 161.625C277.981 160.03 272.71 159.646 268.361 161.408C264.011 163.17 260.595 167.435 258.017 175.611Z" fill="#FFFAD7" stroke="#141414" stroke-width="2.13442" stroke-miterlimit="10"/>
<path d="M258.017 175.611C263.011 175.949 268.144 176.31 272.055 173.763C276.509 170.952 278.982 164.679 283.263 161.625C277.981 160.03 272.71 159.646 268.361 161.408C264.011 163.17 260.595 167.435 258.017 175.611Z" fill="#FFFAD7" stroke="#141414" stroke-width="2.13442" stroke-miterlimit="10"/>
<path d="M259.068 173.155C263.061 169.698 267.746 167.209 272.637 166.036C268.08 168.19 264.191 171.451 261.282 175.233L259.126 173.236L259.068 173.155Z" fill="#FFFAD7"/>
<path d="M311.102 166.996C314.426 163.284 317.855 159.376 318.204 154.74C318.668 149.411 315.212 143.711 315.377 138.475C310.854 141.701 307.345 145.667 306.165 150.164C304.986 154.662 306.17 159.91 311.102 166.996Z" fill="#FFFAD7" stroke="#141414" stroke-width="2.13442" stroke-miterlimit="10"/>
<path d="M311.102 166.996C314.426 163.284 317.855 159.376 318.204 154.74C318.668 149.411 315.212 143.711 315.377 138.475C310.854 141.701 307.345 145.667 306.165 150.164C304.986 154.662 306.17 159.91 311.102 166.996Z" fill="#FFFAD7" stroke="#141414" stroke-width="2.13442" stroke-miterlimit="10"/>
<path d="M309.789 164.642C309.458 159.394 310.338 154.135 312.394 149.499C311.283 154.435 311.499 159.522 312.719 164.136L309.789 164.642Z" fill="#FFFAD7"/>
<path d="M317.645 162.329C322.237 160.394 327.048 158.425 331.545 159.604C336.735 160.899 340.999 166.023 346.004 167.572C341.48 170.799 336.588 172.825 331.952 172.476C327.316 172.127 322.738 169.299 317.645 162.329Z" fill="#FFFAD7" stroke="#141414" stroke-width="2.13442" stroke-miterlimit="10"/>
<path d="M317.645 162.329C322.237 160.394 327.048 158.425 331.545 159.604C336.735 160.899 340.999 166.023 346.004 167.572C341.48 170.799 336.588 172.825 331.952 172.476C327.316 172.127 322.738 169.299 317.645 162.329Z" fill="#FFFAD7" stroke="#141414" stroke-width="2.13442" stroke-miterlimit="10"/>
<path d="M320.875 161.731C324.898 164.467 329.58 166.246 334.608 166.803C329.556 167.238 324.297 166.358 319.443 164.337L320.875 161.731Z" fill="#FFFAD7"/>
<path d="M335.731 143.944C338.151 146.483 340.768 149.126 343.87 149.716C347.388 150.376 351.345 148.406 354.828 148.847C352.685 145.5 350.149 142.8 347.14 141.656C344.13 140.512 340.566 140.983 335.731 143.944Z" fill="#FFFAD7" stroke="#141414" stroke-width="2.13442" stroke-miterlimit="10"/>
<path d="M335.731 143.944C338.151 146.483 340.768 149.126 343.87 149.716C347.388 150.376 351.345 148.406 354.828 148.847C352.685 145.5 350.149 142.8 347.14 141.656C344.13 140.512 340.566 140.983 335.731 143.944Z" fill="#FFFAD7" stroke="#141414" stroke-width="2.13442" stroke-miterlimit="10"/>
<path d="M337.427 142.734C341.072 143.059 344.52 144.134 347.494 145.912C344.162 144.999 340.748 144.996 337.656 145.617L337.508 142.676L337.427 142.734Z" fill="#FFFAD7"/>
<path d="M338.883 138.283C338.194 134.753 337.504 131.223 338.763 128.375C340.23 125.135 344.072 123.003 345.677 119.787C347.198 123.455 348.026 127.008 347.216 130.145C346.407 133.282 344.041 135.945 338.883 138.283Z" fill="#FFFAD7" stroke="#141414" stroke-width="2.13442" stroke-miterlimit="10"/>
<path d="M338.883 138.283C338.194 134.753 337.504 131.223 338.763 128.375C340.23 125.135 344.072 123.003 345.677 119.787C347.198 123.455 348.026 127.008 347.216 130.145C346.407 133.282 344.041 135.945 338.883 138.283Z" fill="#FFFAD7" stroke="#141414" stroke-width="2.13442" stroke-miterlimit="10"/>
<path d="M338.528 135.733C340.882 133.567 342.776 130.754 343.827 127.444C343.687 130.835 342.669 134.364 340.787 137.534L338.47 135.653L338.528 135.733Z" fill="#FFFAD7"/>
<path d="M169.709 128.183C166.18 128.019 162.593 127.774 160.08 125.789C157.256 123.538 156.266 119.247 153.604 116.88C157.468 116.318 161.216 116.447 164.076 118.064C166.935 119.68 168.79 122.623 169.79 128.125L169.709 128.183Z" fill="#FFFAD7" stroke="#141414" stroke-width="2.13442" stroke-miterlimit="10"/>
<path d="M169.709 128.183C166.18 128.019 162.593 127.774 160.08 125.789C157.256 123.538 156.266 119.247 153.604 116.88C157.468 116.318 161.216 116.447 164.076 118.064C166.935 119.68 168.79 122.623 169.79 128.125L169.709 128.183Z" fill="#FFFAD7" stroke="#141414" stroke-width="2.13442" stroke-miterlimit="10"/>
<path d="M167.195 127.904C165.674 125.089 163.392 122.573 160.522 120.599C163.774 121.57 166.944 123.452 169.561 126.095L167.137 127.824L167.195 127.904Z" fill="#FFFAD7"/>
<path d="M170.315 153.466C165.483 153.013 160.57 152.617 157.1 149.974C153.122 146.961 151.569 141.366 147.892 138.261C153.186 137.653 158.238 138.071 162.216 140.231C166.136 142.31 168.878 146.325 170.454 153.489L170.315 153.466Z" fill="#FFFAD7" stroke="#141414" stroke-width="2.13442" stroke-miterlimit="10"/>
<path d="M170.315 153.466C165.483 153.013 160.57 152.617 157.1 149.974C153.122 146.961 151.569 141.366 147.892 138.261C153.186 137.653 158.238 138.071 162.216 140.231C166.136 142.31 168.878 146.325 170.454 153.489L170.315 153.466Z" fill="#FFFAD7" stroke="#141414" stroke-width="2.13442" stroke-miterlimit="10"/>
<path d="M167.213 152.876C164.782 149.126 161.428 145.79 157.358 143.331C161.786 144.925 166.052 147.489 169.521 150.986L167.213 152.876Z" fill="#FFFAD7"/>
<path d="M165.758 191.329C158.849 191.382 151.744 191.331 147.214 187.372C142.003 182.801 140.556 173.596 135.669 168.795C143.432 167.035 150.56 166.948 155.968 169.916C161.295 172.941 164.716 179.275 165.758 191.329Z" fill="#FFFAD7" stroke="#141414" stroke-width="2.13442" stroke-miterlimit="10"/>
<path d="M165.758 191.329C158.849 191.382 151.744 191.331 147.214 187.372C142.003 182.801 140.556 173.596 135.669 168.795C143.432 167.035 150.56 166.948 155.968 169.916C161.295 172.941 164.716 179.275 165.758 191.329Z" fill="#FFFAD7" stroke="#141414" stroke-width="2.13442" stroke-miterlimit="10"/>
<path d="M163.405 190.935C160.248 185.143 155.569 179.95 149.678 176.474C156.066 179.108 161.634 183.667 165.944 189.368L163.52 191.097L163.405 190.935Z" fill="#FFFAD7"/>
<path d="M167.611 197.685C174.485 197.413 181.602 196.968 185.93 192.784C190.87 187.92 191.787 178.612 196.473 173.564C188.665 172.186 181.433 172.47 176.252 175.8C171.071 179.129 167.999 185.586 167.53 197.743L167.611 197.685Z" fill="#FFFAD7" stroke="#141414" stroke-width="2.13442" stroke-miterlimit="10"/>
<path d="M167.611 197.685C174.485 197.413 181.602 196.968 185.93 192.784C190.87 187.92 191.787 178.612 196.473 173.564C188.665 172.186 181.433 172.47 176.252 175.8C171.071 179.129 167.999 185.586 167.53 197.743L167.611 197.685Z" fill="#FFFAD7" stroke="#141414" stroke-width="2.13442" stroke-miterlimit="10"/>
<path d="M167.381 195.655C171.295 189.695 176.65 184.9 182.915 181.894C177.226 185.708 172.771 191.08 169.987 197.087L167.381 195.655Z" fill="#FFFAD7"/>
<path d="M173.958 157.205C178.446 155.466 183.153 153.693 185.739 150.143C188.613 146.142 188.652 140.387 191.388 136.363C186.185 137.271 181.398 139.102 178.247 142.202C175.015 145.36 173.478 149.869 174.015 157.286L173.958 157.205Z" fill="#FFFAD7" stroke="#141414" stroke-width="2.13442" stroke-miterlimit="10"/>
<path d="M173.958 157.205C178.446 155.466 183.153 153.693 185.739 150.143C188.613 146.142 188.652 140.387 191.388 136.363C186.185 137.271 181.398 139.102 178.247 142.202C175.015 145.36 173.478 149.869 174.015 157.286L173.958 157.205Z" fill="#FFFAD7" stroke="#141414" stroke-width="2.13442" stroke-miterlimit="10"/>
<path d="M174.04 154.587C176.408 150.217 179.709 146.644 183.586 143.878C180.447 147.337 178.126 151.43 176.831 155.766L174.04 154.587Z" fill="#FFFAD7"/>
<path d="M172.742 130.042C176.41 128.522 180.218 127.025 182.123 123.716C184.317 119.957 183.755 114.386 185.753 110.523C181.37 111.212 177.482 112.767 175.012 115.626C172.542 118.485 171.662 122.89 172.742 130.042Z" fill="#FFFAD7" stroke="#141414" stroke-width="2.13442" stroke-miterlimit="10"/>
<path d="M172.742 130.042C176.41 128.522 180.218 127.025 182.123 123.716C184.317 119.957 183.755 114.386 185.753 110.523C181.37 111.212 177.482 112.767 175.012 115.626C172.542 118.485 171.662 122.89 172.742 130.042Z" fill="#FFFAD7" stroke="#141414" stroke-width="2.13442" stroke-miterlimit="10"/>
<path d="M172.339 127.769C174.003 123.78 176.531 120.148 179.67 117.544C177.188 120.898 175.767 124.715 175.118 128.59L172.201 127.746L172.339 127.769Z" fill="#FFFAD7"/>
<path d="M300.832 174.809C310.234 170.905 316.987 162.432 323.602 153.936C326.938 149.728 330.355 145.463 334.567 141.971C338.779 138.479 343.821 135.979 349.197 135.314C343.89 136.417 339.16 139.182 335.339 142.882C331.519 146.582 328.517 150.917 325.493 155.39C319.604 164.221 313.301 173.837 302.87 179.205L300.774 174.728L300.832 174.809Z" fill="#FFFAD7"/>
</g>
</svg>
