<svg width="357" height="377" viewBox="0 0 357 377" fill="none" xmlns="http://www.w3.org/2000/svg">
<g opacity="0.4">
<mask id="path-1-inside-1_19_92" fill="white">
<path d="M137.052 157.697C132.406 157.554 127.765 157.143 123.219 155.064C118.73 152.92 114.806 148.319 113.638 142.199C113.082 139.174 113.499 135.71 114.921 132.946C116.285 130.247 118.259 128.168 120.224 126.491C124.323 123.208 128.395 121.127 132.093 118.032C135.843 115.139 139.433 111.774 142.744 108.199C146.166 104.761 148.984 100.436 152.862 96.8784C156.737 93.4546 162.065 91.0117 167.056 93.5058C169.348 94.9805 170.942 97.236 172.252 99.5495C173.448 101.86 174.632 104.704 173.948 107.424C173.898 102.007 169.913 97.6054 166.328 95.6227C162.45 94.099 157.977 96.3677 154.84 99.7474C151.644 103.192 148.769 107.583 145.338 111.421C141.907 115.26 138.201 118.756 134.331 121.912C130.462 125.069 125.986 127.471 122.411 130.169C118.722 132.863 116.14 136.794 116.658 141.557C117.12 146.251 120.199 150.625 124.059 152.951C127.914 155.543 132.543 156.488 137.052 157.697Z"/>
</mask>
<path d="M137.052 157.697C132.406 157.554 127.765 157.143 123.219 155.064C118.73 152.92 114.806 148.319 113.638 142.199C113.082 139.174 113.499 135.71 114.921 132.946C116.285 130.247 118.259 128.168 120.224 126.491C124.323 123.208 128.395 121.127 132.093 118.032C135.843 115.139 139.433 111.774 142.744 108.199C146.166 104.761 148.984 100.436 152.862 96.8784C156.737 93.4546 162.065 91.0117 167.056 93.5058C169.348 94.9805 170.942 97.236 172.252 99.5495C173.448 101.86 174.632 104.704 173.948 107.424C173.898 102.007 169.913 97.6054 166.328 95.6227C162.45 94.099 157.977 96.3677 154.84 99.7474C151.644 103.192 148.769 107.583 145.338 111.421C141.907 115.26 138.201 118.756 134.331 121.912C130.462 125.069 125.986 127.471 122.411 130.169C118.722 132.863 116.14 136.794 116.658 141.557C117.12 146.251 120.199 150.625 124.059 152.951C127.914 155.543 132.543 156.488 137.052 157.697Z" fill="#FFFAD7"/>
<path d="M137.052 157.697L136.798 166.339L138.737 149.268L137.052 157.697ZM123.219 155.064L120.414 163.079L120.464 163.103L120.515 163.126L123.219 155.064ZM113.638 142.199L106.469 144.099L106.475 144.132L106.482 144.165L113.638 142.199ZM114.921 132.946L121.184 137.382L121.199 137.352L121.214 137.323L114.921 132.946ZM120.224 126.491L116.137 119.355L116.045 119.428L115.955 119.505L120.224 126.491ZM132.093 118.032L128.113 110.812L127.995 110.903L127.88 110.999L132.093 118.032ZM142.744 108.199L138.014 101.641L137.913 101.742L137.815 101.848L142.744 108.199ZM152.862 96.8784L148.495 89.9778L148.441 90.0254L148.388 90.074L152.862 96.8784ZM167.056 93.5058L170.613 85.9105L170.298 85.708L169.968 85.543L167.056 93.5058ZM172.252 99.5495L178.521 95.0009L178.445 94.8537L178.364 94.7103L172.252 99.5495ZM173.948 107.424L166.614 107.592L180.979 109.816L173.948 107.424ZM166.328 95.6227L169.491 87.7917L169.105 87.5785L168.701 87.4198L166.328 95.6227ZM154.84 99.7474L149.916 93.39L149.914 93.392L154.84 99.7474ZM122.411 130.169L126.236 137.506L126.282 137.472L126.328 137.437L122.411 130.169ZM116.658 141.557L123.943 140.487L123.938 140.437L123.933 140.386L116.658 141.557ZM124.059 152.951L127.736 145.434L127.59 145.336L127.441 145.246L124.059 152.951ZM137.307 149.056C132.817 148.918 129.238 148.518 125.922 147.002L120.515 163.126C126.293 165.769 131.994 166.19 136.798 166.339L137.307 149.056ZM126.024 147.049C123.367 145.78 121.357 143.181 120.795 140.234L106.482 144.165C108.255 153.458 114.093 160.06 120.414 163.079L126.024 147.049ZM120.807 140.299C120.624 139.306 120.799 138.13 121.184 137.382L108.658 128.51C106.198 133.29 105.539 139.041 106.469 144.099L120.807 140.299ZM121.214 137.323C121.845 136.075 122.914 134.824 124.493 133.477L115.955 119.505C113.604 121.512 110.725 124.419 108.628 128.569L121.214 137.323ZM124.312 133.627C126.052 132.233 127.811 131.073 129.856 129.721C131.813 128.427 134.089 126.921 136.306 125.066L127.88 110.999C126.399 112.238 124.79 113.32 122.762 114.661C120.822 115.944 118.495 117.466 116.137 119.355L124.312 133.627ZM136.073 125.253C140.205 122.065 144.11 118.397 147.673 114.55L137.815 101.848C134.756 105.15 131.481 108.214 128.113 110.812L136.073 125.253ZM147.475 114.757C149.514 112.708 151.367 110.399 152.864 108.589C154.462 106.656 155.832 105.063 157.336 103.683L148.388 90.074C146.014 92.2514 144.036 94.5996 142.4 96.5782C140.663 98.6792 139.396 100.252 138.014 101.641L147.475 114.757ZM157.229 103.779C160.253 101.108 162.705 100.749 164.144 101.469L169.968 85.543C161.424 81.274 153.222 85.8014 148.495 89.9778L157.229 103.779ZM163.499 101.101C164.286 101.607 165.091 102.538 166.139 104.389L178.364 94.7103C176.793 91.9344 174.41 88.3536 170.613 85.9105L163.499 101.101ZM165.982 104.098C166.218 104.554 166.404 104.942 166.549 105.285C166.696 105.631 166.773 105.867 166.811 106.007C166.893 106.311 166.711 105.854 166.917 105.033L180.979 109.816C182.683 103.041 179.614 97.1119 178.521 95.0009L165.982 104.098ZM181.282 107.257C181.234 102.003 179.284 97.6965 177.086 94.6272C174.893 91.5661 172.13 89.2513 169.491 87.7917L163.166 103.454C164.112 103.977 165.133 104.854 165.842 105.844C166.545 106.825 166.612 107.428 166.614 107.592L181.282 107.257ZM168.701 87.4198C161.171 84.4616 153.954 89.0399 149.916 93.39L159.763 106.105C160.689 105.107 161.723 104.385 162.613 104.028C163.492 103.676 163.891 103.8 163.956 103.826L168.701 87.4198ZM149.914 93.392C148.022 95.4315 146.281 97.6899 144.766 99.6555C143.176 101.719 141.79 103.522 140.312 105.176L150.364 117.666C152.316 115.482 154.083 113.17 155.588 111.218C157.168 109.167 158.462 107.508 159.765 106.103L149.914 93.392ZM140.312 105.176C137.184 108.676 133.778 111.892 130.192 114.818L138.471 129.006C142.623 125.619 146.631 121.843 150.364 117.666L140.312 105.176ZM130.192 114.818C128.596 116.12 126.802 117.324 124.761 118.652C122.836 119.902 120.541 121.355 118.494 122.9L126.328 137.437C127.855 136.285 129.586 135.187 131.761 133.773C133.819 132.436 136.198 130.861 138.471 129.006L130.192 114.818ZM118.586 122.832C113.792 126.332 108.33 133.055 109.382 142.728L123.933 140.386C123.92 140.265 123.898 140.12 124.121 139.709C124.409 139.179 125.052 138.37 126.236 137.506L118.586 122.832ZM109.372 142.627C110.185 150.875 115.253 157.388 120.677 160.655L127.441 145.246C125.144 143.863 124.056 141.628 123.943 140.487L109.372 142.627ZM120.383 160.467C125.432 163.863 131.493 165.088 135.367 166.127L138.737 149.268C133.593 147.889 130.397 147.224 127.736 145.434L120.383 160.467Z" fill="#F2EAD3" mask="url(#path-1-inside-1_19_92)"/>
<mask id="path-3-inside-2_19_92" fill="white">
<path d="M116.334 135.664C105.758 134.468 94.9826 134.537 84.2942 135.811C94.7915 132.926 105.544 131.319 116.441 130.853L116.279 135.595L116.334 135.664Z"/>
</mask>
<path d="M116.334 135.664C105.758 134.468 94.9826 134.537 84.2942 135.811C94.7915 132.926 105.544 131.319 116.441 130.853L116.279 135.595L116.334 135.664Z" fill="#FFFAD7"/>
<path d="M116.334 135.664L115.572 144.269L135.198 146.487L121.676 129.687L116.334 135.664ZM84.2942 135.811L82.6864 127.394L84.9709 144.411L84.2942 135.811ZM116.441 130.853L123.77 131.128L124.086 121.88L116.238 122.215L116.441 130.853ZM116.279 135.595L108.95 135.321L108.826 138.95L110.937 141.572L116.279 135.595ZM117.096 127.059C106.026 125.808 94.7689 125.881 83.6175 127.211L84.9709 144.411C95.1962 143.192 105.489 143.129 115.572 144.269L117.096 127.059ZM85.902 144.229C95.9036 141.48 106.184 139.939 116.645 139.492L116.238 122.215C104.904 122.699 93.6794 124.372 82.6864 127.394L85.902 144.229ZM109.112 130.579L108.95 135.321L123.608 135.869L123.77 131.128L109.112 130.579ZM110.937 141.572L110.992 141.641L121.676 129.687L121.621 129.618L110.937 141.572Z" fill="#F2EAD3" mask="url(#path-3-inside-2_19_92)"/>
<mask id="path-5-inside-3_19_92" fill="white">
<path d="M122.856 127.976C111.309 119.396 98.4102 112.981 84.8851 109.221C98.6143 111.45 112.226 116.416 124.875 123.893L122.911 128.045L122.856 127.976Z"/>
</mask>
<path d="M122.856 127.976C111.309 119.396 98.4102 112.981 84.8851 109.221C98.6143 111.45 112.226 116.416 124.875 123.893L122.911 128.045L122.856 127.976Z" fill="#FFFAD7"/>
<path d="M122.856 127.976L128.198 121.999L127.574 121.223L126.806 120.653L122.856 127.976ZM84.8851 109.221L85.9469 100.657L83.1435 117.635L84.8851 109.221ZM124.875 123.893L131.274 128.053L135 120.175L128.208 116.16L124.875 123.893ZM122.911 128.045L117.569 134.022L124.423 142.538L129.311 132.204L122.911 128.045ZM126.806 120.653C114.584 111.572 100.94 104.786 86.6268 100.806L83.1435 117.635C95.8804 121.176 108.034 127.221 118.907 135.3L126.806 120.653ZM83.8234 117.784C96.7543 119.883 109.599 124.567 121.542 131.627L128.208 116.16C114.853 108.265 100.474 103.016 85.9469 100.657L83.8234 117.784ZM118.475 119.734L116.512 123.885L129.311 132.204L131.274 128.053L118.475 119.734ZM128.253 122.068L128.198 121.999L117.514 133.953L117.569 134.022L128.253 122.068Z" fill="#F2EAD3" mask="url(#path-5-inside-3_19_92)"/>
<mask id="path-7-inside-4_19_92" fill="white">
<path d="M127.717 115.892C123.231 108.533 117.594 101.94 111.017 96.7899C118.19 100.622 124.987 106.046 130.79 112.844L127.717 115.892Z"/>
</mask>
<path d="M127.717 115.892C123.231 108.533 117.594 101.94 111.017 96.7899C118.19 100.622 124.987 106.046 130.79 112.844L127.717 115.892Z" fill="#FFFAD7"/>
<path d="M127.717 115.892L121.748 120.975L126.34 128.507L132.411 122.486L127.717 115.892ZM111.017 96.7899L114.092 88.9116L106.922 104.002L111.017 96.7899ZM130.79 112.844L135.484 119.439L141.649 113.325L135.983 106.688L130.79 112.844ZM133.686 110.808C128.725 102.671 122.467 95.3374 115.113 89.5779L106.922 104.002C112.721 108.543 117.737 114.394 121.748 120.975L133.686 110.808ZM107.942 104.668C114.351 108.092 120.426 112.942 125.597 119.001L135.983 106.688C129.549 99.1502 122.029 93.1513 114.092 88.9116L107.942 104.668ZM126.096 106.25L123.023 109.297L132.411 122.486L135.484 119.439L126.096 106.25Z" fill="#F2EAD3" mask="url(#path-7-inside-4_19_92)"/>
<mask id="path-9-inside-5_19_92" fill="white">
<path d="M137.93 105.376C133.167 82.4314 134.218 58.0613 140.656 36.2644C135.453 58.6343 136 82.5189 141.813 104.159L137.985 105.445L137.93 105.376Z"/>
</mask>
<path d="M137.93 105.376C133.167 82.4314 134.218 58.0613 140.656 36.2644C135.453 58.6343 136 82.5189 141.813 104.159L137.985 105.445L137.93 105.376Z" fill="#FFFAD7"/>
<path d="M137.93 105.376L130.805 107.498L131.264 109.707L132.588 111.353L137.93 105.376ZM140.656 36.2644L147.728 38.4834L133.731 33.485L140.656 36.2644ZM141.813 104.159L143.768 112.471L151.097 110.009L148.807 101.486L141.813 104.159ZM137.985 105.445L132.644 111.422L135.676 115.189L139.94 113.757L137.985 105.445ZM145.056 103.255C140.626 81.9207 141.612 59.2532 147.581 39.0438L133.731 33.485C126.824 56.8695 125.707 82.9421 130.805 107.498L145.056 103.255ZM133.583 34.0454C127.998 58.0598 128.589 83.6429 134.819 106.832L148.807 101.486C143.41 81.3949 142.908 59.2088 147.728 38.4834L133.583 34.0454ZM139.858 95.8476L136.031 97.1334L139.94 113.757L143.768 112.471L139.858 95.8476ZM143.327 99.4681L143.272 99.3995L132.588 111.353L132.644 111.422L143.327 99.4681Z" fill="#F2EAD3" mask="url(#path-9-inside-5_19_92)"/>
<mask id="path-11-inside-6_19_92" fill="white">
<path d="M147.925 102.141C148.877 87.3955 152.765 73.1415 159.106 60.8351C153.939 73.9131 151.524 88.2126 151.947 102.332L147.981 102.21L147.925 102.141Z"/>
</mask>
<path d="M147.925 102.141C148.877 87.3955 152.765 73.1415 159.106 60.8351C153.939 73.9131 151.524 88.2126 151.947 102.332L147.981 102.21L147.925 102.141Z" fill="#FFFAD7"/>
<path d="M147.925 102.141L140.612 101.559L140.367 105.364L142.584 108.118L147.925 102.141ZM159.106 60.8351L165.75 64.4288L152.845 56.3948L159.106 60.8351ZM151.947 102.332L151.692 110.974L159.555 111.216L159.277 101.953L151.947 102.332ZM147.981 102.21L142.639 108.187L144.708 110.758L147.726 110.851L147.981 102.21ZM155.239 102.723C156.104 89.3198 159.64 76.3911 165.367 65.2754L152.845 56.3948C145.891 69.8918 141.65 85.4712 140.612 101.559L155.239 102.723ZM152.461 57.2415C146.798 71.5757 144.153 87.238 144.617 102.711L159.277 101.953C158.894 89.1873 161.08 76.2506 165.75 64.4288L152.461 57.2415ZM152.202 93.6912L148.235 93.5687L147.726 110.851L151.692 110.974L152.202 93.6912ZM153.322 96.233L153.267 96.1644L142.584 108.118L142.639 108.187L153.322 96.233Z" fill="#F2EAD3" mask="url(#path-11-inside-6_19_92)"/>
<mask id="path-13-inside-7_19_92" fill="white">
<path d="M160.274 92.4939C164.767 71.4392 175.783 52.859 190.51 40.8116C176.605 54.1546 167.164 73.3183 164.22 93.5517L160.329 92.5624L160.274 92.4939Z"/>
</mask>
<path d="M160.274 92.4939C164.767 71.4392 175.783 52.859 190.51 40.8116C176.605 54.1546 167.164 73.3183 164.22 93.5517L160.329 92.5624L160.274 92.4939Z" fill="#FFFAD7"/>
<path d="M160.274 92.4939L153.162 90.4527L152.18 95.0517L154.932 98.4708L160.274 92.4939ZM190.51 40.8116L195.112 47.4962L186.363 33.7241L190.51 40.8116ZM164.22 93.5517L162.614 102.002L170.143 103.916L171.448 94.9421L164.22 93.5517ZM160.329 92.5624L154.987 98.5394L156.529 100.455L158.724 101.013L160.329 92.5624ZM167.386 94.535C171.444 75.5231 181.407 58.7388 194.658 47.899L186.363 33.7241C170.16 46.9792 158.091 67.3553 153.162 90.4527L167.386 94.535ZM185.908 34.1269C170.618 48.7994 160.239 69.8426 156.991 92.1613L171.448 94.9421C174.089 76.794 182.592 59.5099 195.112 47.4962L185.908 34.1269ZM165.825 85.1012L161.934 84.112L158.724 101.013L162.614 102.002L165.825 85.1012ZM165.671 86.5855L165.616 86.5169L154.932 98.4708L154.987 98.5394L165.671 86.5855Z" fill="#F2EAD3" mask="url(#path-13-inside-7_19_92)"/>
<path d="M81.259 134.777C81.8495 135.511 81.7426 136.511 81.288 137.019C80.8335 137.528 79.981 137.601 79.3905 136.868C78.8 136.134 78.9069 135.134 79.3615 134.626C79.816 134.117 80.6685 134.043 81.259 134.777Z" fill="#FFFAD7" stroke="#F2EAD3" stroke-width="8.01619"/>
<path d="M108.881 93.577C109.472 94.3107 109.365 95.3106 108.91 95.8192C108.456 96.3277 107.603 96.4013 107.013 95.6676C106.422 94.9339 106.529 93.934 106.984 93.4254C107.438 92.9168 108.291 92.8433 108.881 93.577Z" fill="#FFFAD7" stroke="#F2EAD3" stroke-width="8.01619"/>
<path d="M141.979 30.4842C142.569 31.2179 142.463 32.2178 142.008 32.7264C141.553 33.235 140.701 33.3085 140.11 32.5748C139.52 31.8411 139.627 30.8412 140.081 30.3327C140.536 29.8241 141.388 29.7505 141.979 30.4842Z" fill="#FFFAD7" stroke="#F2EAD3" stroke-width="8.01619"/>
<path d="M161.814 56.5017C162.405 57.2354 162.298 58.2353 161.843 58.7438C161.389 59.2524 160.536 59.326 159.946 58.5923C159.355 57.8586 159.462 56.8587 159.917 56.3501C160.371 55.8415 161.224 55.768 161.814 56.5017Z" fill="#FFFAD7" stroke="#F2EAD3" stroke-width="8.01619"/>
<path d="M193.991 37.4387C194.581 38.1724 194.474 39.1723 194.02 39.6808C193.565 40.1894 192.713 40.263 192.122 39.5293C191.532 38.7956 191.639 37.7957 192.093 37.2871C192.548 36.7785 193.4 36.705 193.991 37.4387Z" fill="#FFFAD7" stroke="#F2EAD3" stroke-width="8.01619"/>
<path d="M81.8675 107.385C82.458 108.118 82.3511 109.118 81.8966 109.627C81.442 110.135 80.5896 110.209 79.999 109.475C79.4085 108.742 79.5154 107.742 79.97 107.233C80.4245 106.725 81.277 106.651 81.8675 107.385Z" fill="#FFFAD7" stroke="#F2EAD3" stroke-width="8.01619"/>
<mask id="path-21-inside-8_19_92" fill="white">
<path d="M115.265 142.985C113.42 149.48 107.179 152.162 102.259 154.15C97.2802 156.202 91.7319 158.371 89.2422 163.241C86.7526 168.112 86.7205 174.663 88.9324 179.745C91.1414 184.961 95.4228 188.771 100.135 191.056C109.667 195.896 120.812 194.502 130.824 190.465C140.895 186.364 150.18 179.363 159.571 172.633C151.167 180.864 142.26 188.746 131.941 193.776C121.681 198.741 109.566 200.439 98.6221 195.354C93.3521 192.651 88.3503 188.084 85.7729 181.587C83.2507 175.157 83.2021 167.133 86.7936 161.16C90.5595 154.992 96.6596 153.509 101.801 151.796C107.047 150.487 112.699 148.722 115.381 142.855L115.265 142.985Z"/>
</mask>
<path d="M115.265 142.985C113.42 149.48 107.179 152.162 102.259 154.15C97.2802 156.202 91.7319 158.371 89.2422 163.241C86.7526 168.112 86.7205 174.663 88.9324 179.745C91.1414 184.961 95.4228 188.771 100.135 191.056C109.667 195.896 120.812 194.502 130.824 190.465C140.895 186.364 150.18 179.363 159.571 172.633C151.167 180.864 142.26 188.746 131.941 193.776C121.681 198.741 109.566 200.439 98.6221 195.354C93.3521 192.651 88.3503 188.084 85.7729 181.587C83.2507 175.157 83.2021 167.133 86.7936 161.16C90.5595 154.992 96.6596 153.509 101.801 151.796C107.047 150.487 112.699 148.722 115.381 142.855L115.265 142.985Z" fill="#FFFAD7"/>
<path d="M115.265 142.985L110.239 136.74L108.898 138.241L108.312 140.303L115.265 142.985ZM102.259 154.15L99.934 145.975L99.9119 145.984L99.8899 145.993L102.259 154.15ZM88.9324 179.745L95.5006 175.832L95.4828 175.79L95.4646 175.748L88.9324 179.745ZM100.135 191.056L103.086 183.112L103.031 183.084L102.975 183.057L100.135 191.056ZM130.824 190.465L133.145 198.642L133.156 198.637L133.167 198.633L130.824 190.465ZM159.571 172.633L164.231 179.262L155.8 165.257L159.571 172.633ZM131.941 193.776L134.678 201.768L134.687 201.764L134.695 201.76L131.941 193.776ZM98.6221 195.354L95.6469 203.285L95.7635 203.345L95.8818 203.4L98.6221 195.354ZM85.7729 181.587L79.1108 185.269L79.1172 185.286L79.1237 185.302L85.7729 181.587ZM86.7936 161.16L80.8525 156.151L80.8368 156.176L80.8213 156.202L86.7936 161.16ZM101.801 151.796L100.34 143.339L100.099 143.4L99.8611 143.479L101.801 151.796ZM115.381 142.855L121.832 146.904L110.355 136.61L115.381 142.855ZM108.312 140.303C108.139 140.912 107.674 141.781 106.132 142.89C104.51 144.057 102.452 144.958 99.934 145.975L104.584 162.324C106.986 161.354 110.508 159.92 113.698 157.625C116.968 155.272 120.545 151.553 122.218 145.667L108.312 140.303ZM99.8899 145.993C97.563 146.952 94.3823 148.215 91.505 149.96C88.5997 151.722 85.2214 154.419 82.9682 158.827L95.5163 167.655C95.7528 167.193 96.3934 166.371 98.1294 165.318C99.8933 164.248 101.976 163.4 104.628 162.306L99.8899 145.993ZM82.9682 158.827C79.0561 166.48 79.1297 176.227 82.4002 183.742L95.4646 175.748C94.3113 173.098 94.449 169.743 95.5163 167.655L82.9682 158.827ZM82.3642 183.658C85.5989 191.297 91.5468 196.266 97.2951 199.054L102.975 183.057C99.2989 181.275 96.6838 178.626 95.5006 175.832L82.3642 183.658ZM97.1843 198.999C109.053 205.026 122.256 203.032 133.145 198.642L128.503 182.289C119.367 185.972 110.281 186.766 103.086 183.112L97.1843 198.999ZM133.167 198.633C144.166 194.153 154.237 186.534 163.343 180.009L155.8 165.257C146.122 172.193 137.624 178.574 128.482 182.298L133.167 198.633ZM154.912 166.004C146.631 174.114 138.43 181.287 129.188 185.792L134.695 201.76C146.089 196.205 155.702 187.614 164.231 179.262L154.912 166.004ZM129.205 185.783C120.151 190.165 110.066 191.353 101.362 187.309L95.8818 203.4C109.066 209.525 123.212 207.317 134.678 201.768L129.205 185.783ZM101.597 187.424C97.3882 185.265 94.0279 181.919 92.4221 177.871L79.1237 185.302C82.6727 194.249 89.316 200.038 95.6469 203.285L101.597 187.424ZM92.435 177.904C90.7477 173.603 91.0367 168.994 92.7658 166.118L80.8213 156.202C75.3675 165.273 75.7536 176.712 79.1108 185.269L92.435 177.904ZM92.7347 166.169C94.6533 163.027 97.628 162.149 103.741 160.112L99.8611 143.479C95.6912 144.868 86.4657 146.957 80.8525 156.151L92.7347 166.169ZM103.261 160.252C108.033 159.061 117.305 156.808 121.832 146.904L108.931 138.806C108.547 139.646 107.886 140.434 106.467 141.224C104.916 142.087 102.944 142.69 100.34 143.339L103.261 160.252ZM110.355 136.61L110.239 136.74L120.291 149.23L120.407 149.1L110.355 136.61Z" fill="#F2EAD3" mask="url(#path-21-inside-8_19_92)"/>
<mask id="path-23-inside-9_19_92" fill="white">
<path d="M94.0456 156.303C90.498 155.191 87.5183 151.488 86.9452 146.657C86.9387 141.843 88.8439 137.757 91.1354 134.151C93.5402 130.548 96.6013 128.035 99.212 125.374C101.881 122.649 104.439 119.786 106.829 116.851C109.277 113.852 111.557 110.78 113.784 107.506C116.009 104.365 118.021 100.55 121.257 97.8416C124.376 95.2637 128.675 93.1902 132.698 95.8549C135.696 98.7554 137.873 102.834 137.72 107.175C137.074 103.077 134.373 99.5837 131.692 97.7627C129.115 96.346 125.502 98.1733 123.179 100.642C120.795 103.31 118.905 106.728 116.785 110.273C114.61 113.749 112.269 117.019 109.76 120.218C107.195 123.348 104.524 126.207 101.628 128.925C98.7325 131.644 95.8459 133.962 93.4037 136.694C91.1301 139.499 89.1785 143.116 88.8688 146.85C88.6754 150.454 90.8529 154.533 93.9845 156.502L94.0456 156.303Z"/>
</mask>
<path d="M94.0456 156.303C90.498 155.191 87.5183 151.488 86.9452 146.657C86.9387 141.843 88.8439 137.757 91.1354 134.151C93.5402 130.548 96.6013 128.035 99.212 125.374C101.881 122.649 104.439 119.786 106.829 116.851C109.277 113.852 111.557 110.78 113.784 107.506C116.009 104.365 118.021 100.55 121.257 97.8416C124.376 95.2637 128.675 93.1902 132.698 95.8549C135.696 98.7554 137.873 102.834 137.72 107.175C137.074 103.077 134.373 99.5837 131.692 97.7627C129.115 96.346 125.502 98.1733 123.179 100.642C120.795 103.31 118.905 106.728 116.785 110.273C114.61 113.749 112.269 117.019 109.76 120.218C107.195 123.348 104.524 126.207 101.628 128.925C98.7325 131.644 95.8459 133.962 93.4037 136.694C91.1301 139.499 89.1785 143.116 88.8688 146.85C88.6754 150.454 90.8529 154.533 93.9845 156.502L94.0456 156.303Z" fill="#FFFAD7"/>
<path d="M94.0456 156.303L100.939 159.187L103.656 150.353L95.9878 147.948L94.0456 156.303ZM86.9452 146.657L79.6106 146.745L79.6114 147.338L79.6811 147.925L86.9452 146.657ZM91.1354 134.151L85.3855 128.842L85.3309 128.924L85.278 129.007L91.1354 134.151ZM99.212 125.374L103.982 131.892L103.988 131.886L99.212 125.374ZM106.829 116.851L101.564 110.887L101.558 110.893L106.829 116.851ZM113.784 107.506L108.17 102L108.123 102.066L108.077 102.133L113.784 107.506ZM121.257 97.8416L117.08 90.7783L117.062 90.7932L117.044 90.8083L121.257 97.8416ZM132.698 95.8549L137.381 89.1553L136.889 88.6787L136.333 88.3105L132.698 95.8549ZM137.72 107.175L130.509 108.824L145.048 107.46L137.72 107.175ZM131.692 97.7627L135.395 90.2639L135.123 90.0795L134.839 89.9233L131.692 97.7627ZM123.179 100.642L118.293 94.2449L118.222 94.32L118.153 94.3973L123.179 100.642ZM116.785 110.273L122.675 115.364L122.722 115.289L122.768 115.212L116.785 110.273ZM109.76 120.218L115.015 126.195L115.071 126.127L115.126 126.057L109.76 120.218ZM93.4037 136.694L88.3777 130.449L88.2463 130.596L88.1212 130.751L93.4037 136.694ZM88.8688 146.85L81.569 146.082L81.5568 146.23L81.5488 146.378L88.8688 146.85ZM93.9845 156.502L90.4897 164.136L97.9701 168.839L100.878 159.386L93.9845 156.502ZM95.9878 147.948C95.2341 147.712 94.373 146.768 94.2093 145.389L79.6811 147.925C80.6637 156.209 85.762 162.669 92.1034 164.658L95.9878 147.948ZM94.2798 146.57C94.2771 144.564 95.0468 142.357 96.9929 139.294L85.278 129.007C82.6411 133.157 79.6003 139.122 79.6106 146.745L94.2798 146.57ZM96.8853 139.459C98.7029 136.736 100.613 135.326 103.982 131.892L94.4417 118.856C92.59 120.743 88.3776 124.359 85.3855 128.842L96.8853 139.459ZM103.988 131.886C106.825 128.989 109.549 125.942 112.1 122.809L101.558 110.893C99.3296 113.63 96.9366 116.308 94.4358 118.862L103.988 131.886ZM112.095 122.816C114.706 119.616 117.132 116.346 119.491 112.878L108.077 102.133C105.982 105.214 103.849 108.087 101.564 110.887L112.095 122.816ZM119.398 113.012C120.059 112.079 120.687 111.12 121.224 110.302C121.789 109.44 122.273 108.704 122.771 107.996C123.756 106.596 124.595 105.607 125.47 104.875L117.044 90.8083C114.683 92.7841 112.899 95.0568 111.512 97.0272C110.824 98.0043 110.186 98.9795 109.647 99.8015C109.08 100.666 108.622 101.362 108.17 102L119.398 113.012ZM125.434 104.905C126.518 104.009 127.464 103.503 128.148 103.326C128.689 103.186 128.88 103.277 129.064 103.399L136.333 88.3105C128.434 83.0792 120.771 87.7278 117.08 90.7783L125.434 104.905ZM128.015 102.555C130.008 104.483 130.415 106.225 130.392 106.89L145.048 107.46C145.331 99.4435 141.383 93.0278 137.381 89.1553L128.015 102.555ZM144.932 105.526C143.792 98.2959 139.352 92.9515 135.395 90.2639L127.989 105.261C128.552 105.644 129.2 106.272 129.719 107.038C130.238 107.805 130.448 108.442 130.509 108.824L144.932 105.526ZM134.839 89.9233C131.258 87.9546 127.626 88.5565 125.1 89.5373C122.495 90.5484 120.128 92.2942 118.293 94.2449L128.066 107.039C128.283 106.809 128.552 106.571 128.846 106.364C129.142 106.156 129.399 106.024 129.581 105.953C129.771 105.88 129.784 105.909 129.629 105.911C129.458 105.914 129.051 105.88 128.545 105.602L134.839 89.9233ZM118.153 94.3973C115.088 97.8274 112.658 102.229 110.802 105.333L122.768 115.212C125.152 111.227 126.503 108.792 128.205 106.887L118.153 94.3973ZM110.895 105.181C108.911 108.352 106.752 111.373 104.394 114.379L115.126 126.057C117.786 122.666 120.309 119.146 122.675 115.364L110.895 105.181ZM104.504 114.241C102.166 117.095 99.7337 119.698 97.0879 122.182L106.168 135.669C109.313 132.716 112.224 129.601 115.015 126.195L104.504 114.241ZM97.0879 122.182C94.8055 124.325 91.1094 127.393 88.3777 130.449L98.4298 142.939C100.582 140.531 102.66 138.963 106.168 135.669L97.0879 122.182ZM88.1212 130.751C85.3122 134.216 82.1082 139.581 81.569 146.082L96.1686 147.618C96.2489 146.65 96.9479 144.782 98.6862 142.638L88.1212 130.751ZM81.5488 146.378C81.1387 154.02 85.3911 160.931 90.4897 164.136L97.4793 148.867C97.0939 148.625 96.684 148.181 96.406 147.658C96.2766 147.414 96.2161 147.228 96.1931 147.134C96.1696 147.038 96.2004 147.105 96.1888 147.322L81.5488 146.378ZM100.878 159.386L100.939 159.187L87.1525 153.418L87.0914 153.617L100.878 159.386Z" fill="#F2EAD3" mask="url(#path-23-inside-9_19_92)"/>
<mask id="path-25-inside-10_19_92" fill="white">
<path d="M164.095 168.093C160.676 171.397 155.863 173.655 151.346 175.321C146.716 176.983 141.933 177.905 137.106 178.224C127.453 178.862 117.843 177.496 108.406 176.068L100.267 174.881L108.367 172.724C117.835 170.208 125.606 162.425 134.637 156.62C139.349 153.824 143.764 151.62 148.746 149.434C153.786 147.183 159.893 147.907 164.603 150.325L162.657 153.675C159.291 149.492 157.78 143.496 157.96 137.952C158.084 132.34 160.077 126.853 162.61 122.585C167.514 113.711 173.689 106.28 178.192 97.5939L181.807 90.5519L180.211 98.5922C178.804 105.769 178.298 113.242 178.643 120.673C178.845 124.357 179.445 127.985 179.87 131.809C180.298 135.5 180.433 139.649 179.103 143.352L177.869 142.779C181.209 132.787 187.173 124.681 192.852 116.633C198.414 108.715 204.384 100.341 205.966 90.3618L206.561 86.5694L207.899 90.1541C210.093 96.0383 210.061 102.589 208.904 108.704C207.748 114.819 205.412 120.43 202.687 125.694C200.02 130.894 197.074 135.884 194.523 140.953L190.152 148.841C188.337 151.392 185.852 153.522 182.887 154.232L183.032 150.292C186.576 151.538 190.668 151.13 193.555 148.812C196.903 146.108 200.145 143.132 202.887 139.674C208.428 132.691 213.145 124.546 217.694 116.33L223.304 106.274L221.453 118.117C220.392 125.038 218.265 131.457 215.859 137.667C213.398 143.809 210.6 149.806 206.962 155.31C203.379 160.882 198.513 165.546 192.784 168.177C187.053 170.941 180.035 170.324 174.731 166.616L177.606 164.833C177.062 171.435 173.593 177.011 169.651 180.901C165.65 184.855 161.165 187.658 156.631 190.126C147.507 194.992 137.969 198.107 128.805 202.237L125.023 203.992L127.489 200.19C130.013 196.324 133.525 193.959 136.862 191.789C140.198 189.618 143.643 187.719 146.701 185.34C149.762 182.827 152.771 180.112 155.724 177.328C158.62 174.61 161.472 171.288 163.862 168.353L164.095 168.093ZM164.385 167.768C162.192 172.046 159.355 174.699 156.619 177.891C153.773 180.945 150.93 183.866 147.807 186.577C141.676 192.004 133.847 194.771 129.502 201.456L128.187 199.41C137.36 194.879 146.791 191.493 155.578 186.483C159.885 184.009 164.144 181.198 167.627 177.562C171.11 173.926 173.652 169.257 173.991 164.187L174.181 160.716L176.866 162.404C181.45 165.353 186.77 165.785 191.583 163.526C196.397 161.268 200.74 157.19 203.915 152.074C207.204 146.96 209.941 141.162 212.283 135.284C214.57 129.337 216.578 123.182 217.624 116.929L221.383 118.717C216.608 126.926 211.833 135.136 205.829 142.505C202.854 146.224 199.325 149.391 195.805 152.158C191.654 155.238 186.601 155.55 182.158 153.876L175.636 151.401L182.305 149.802C184.357 149.33 186.319 147.786 187.837 145.828L192.022 138.67C194.802 133.474 197.859 128.621 200.578 123.624C203.297 118.626 205.624 113.417 206.827 107.771C208.085 102.194 208.05 96.109 206.239 90.8383L208.117 90.5619C207.315 96.0194 205.11 100.832 202.574 105.233C200.038 109.634 197.113 113.689 194.191 117.61C188.346 125.452 182.33 133.356 179.336 143.091L178.101 142.519C180.406 135.77 177.625 128.197 177.283 120.631C176.656 113.124 176.941 105.377 178.186 97.8611L180.263 98.7944C175.862 108.018 169.849 115.789 165.405 124.41C163.099 128.684 161.638 133.185 161.476 137.927C161.314 142.669 162.683 147.391 165.332 150.682L170.629 157.264L163.386 154.031C158.84 151.952 154.315 151.411 149.796 153.211C145.332 155.079 140.402 157.467 136.153 159.876C127.532 165.092 119.467 173.334 108.865 175.815L108.768 172.536C118.199 174.231 127.573 175.991 136.991 175.747C141.699 175.692 146.418 175.102 150.984 173.772C155.663 172.446 159.79 170.434 164.333 167.566L164.385 167.768Z"/>
</mask>
<path d="M164.095 168.093C160.676 171.397 155.863 173.655 151.346 175.321C146.716 176.983 141.933 177.905 137.106 178.224C127.453 178.862 117.843 177.496 108.406 176.068L100.267 174.881L108.367 172.724C117.835 170.208 125.606 162.425 134.637 156.62C139.349 153.824 143.764 151.62 148.746 149.434C153.786 147.183 159.893 147.907 164.603 150.325L162.657 153.675C159.291 149.492 157.78 143.496 157.96 137.952C158.084 132.34 160.077 126.853 162.61 122.585C167.514 113.711 173.689 106.28 178.192 97.5939L181.807 90.5519L180.211 98.5922C178.804 105.769 178.298 113.242 178.643 120.673C178.845 124.357 179.445 127.985 179.87 131.809C180.298 135.5 180.433 139.649 179.103 143.352L177.869 142.779C181.209 132.787 187.173 124.681 192.852 116.633C198.414 108.715 204.384 100.341 205.966 90.3618L206.561 86.5694L207.899 90.1541C210.093 96.0383 210.061 102.589 208.904 108.704C207.748 114.819 205.412 120.43 202.687 125.694C200.02 130.894 197.074 135.884 194.523 140.953L190.152 148.841C188.337 151.392 185.852 153.522 182.887 154.232L183.032 150.292C186.576 151.538 190.668 151.13 193.555 148.812C196.903 146.108 200.145 143.132 202.887 139.674C208.428 132.691 213.145 124.546 217.694 116.33L223.304 106.274L221.453 118.117C220.392 125.038 218.265 131.457 215.859 137.667C213.398 143.809 210.6 149.806 206.962 155.31C203.379 160.882 198.513 165.546 192.784 168.177C187.053 170.941 180.035 170.324 174.731 166.616L177.606 164.833C177.062 171.435 173.593 177.011 169.651 180.901C165.65 184.855 161.165 187.658 156.631 190.126C147.507 194.992 137.969 198.107 128.805 202.237L125.023 203.992L127.489 200.19C130.013 196.324 133.525 193.959 136.862 191.789C140.198 189.618 143.643 187.719 146.701 185.34C149.762 182.827 152.771 180.112 155.724 177.328C158.62 174.61 161.472 171.288 163.862 168.353L164.095 168.093ZM164.385 167.768C162.192 172.046 159.355 174.699 156.619 177.891C153.773 180.945 150.93 183.866 147.807 186.577C141.676 192.004 133.847 194.771 129.502 201.456L128.187 199.41C137.36 194.879 146.791 191.493 155.578 186.483C159.885 184.009 164.144 181.198 167.627 177.562C171.11 173.926 173.652 169.257 173.991 164.187L174.181 160.716L176.866 162.404C181.45 165.353 186.77 165.785 191.583 163.526C196.397 161.268 200.74 157.19 203.915 152.074C207.204 146.96 209.941 141.162 212.283 135.284C214.57 129.337 216.578 123.182 217.624 116.929L221.383 118.717C216.608 126.926 211.833 135.136 205.829 142.505C202.854 146.224 199.325 149.391 195.805 152.158C191.654 155.238 186.601 155.55 182.158 153.876L175.636 151.401L182.305 149.802C184.357 149.33 186.319 147.786 187.837 145.828L192.022 138.67C194.802 133.474 197.859 128.621 200.578 123.624C203.297 118.626 205.624 113.417 206.827 107.771C208.085 102.194 208.05 96.109 206.239 90.8383L208.117 90.5619C207.315 96.0194 205.11 100.832 202.574 105.233C200.038 109.634 197.113 113.689 194.191 117.61C188.346 125.452 182.33 133.356 179.336 143.091L178.101 142.519C180.406 135.77 177.625 128.197 177.283 120.631C176.656 113.124 176.941 105.377 178.186 97.8611L180.263 98.7944C175.862 108.018 169.849 115.789 165.405 124.41C163.099 128.684 161.638 133.185 161.476 137.927C161.314 142.669 162.683 147.391 165.332 150.682L170.629 157.264L163.386 154.031C158.84 151.952 154.315 151.411 149.796 153.211C145.332 155.079 140.402 157.467 136.153 159.876C127.532 165.092 119.467 173.334 108.865 175.815L108.768 172.536C118.199 174.231 127.573 175.991 136.991 175.747C141.699 175.692 146.418 175.102 150.984 173.772C155.663 172.446 159.79 170.434 164.333 167.566L164.385 167.768Z" fill="#FFFAD7"/>
<path d="M164.095 168.093L169.121 174.338L159.473 161.428L164.095 168.093ZM151.346 175.321L153.429 183.588L153.455 183.579L153.482 183.569L151.346 175.321ZM108.406 176.068L109.401 167.494L109.384 167.491L109.368 167.489L108.406 176.068ZM100.267 174.881L98.7089 166.45L99.305 183.459L100.267 174.881ZM108.367 172.724L106.812 164.292L106.809 164.293L108.367 172.724ZM134.637 156.62L131.383 148.906L131.275 148.971L131.168 149.04L134.637 156.62ZM148.746 149.434L151.254 157.532L151.274 157.523L151.294 157.514L148.746 149.434ZM164.603 150.325L170.644 155.166L175.653 146.542L167.581 142.396L164.603 150.325ZM162.657 153.675L157.315 159.652L163.544 167.39L168.698 158.516L162.657 153.675ZM157.96 137.952L165.289 138.209L165.291 138.157L165.292 138.105L157.96 137.952ZM162.61 122.585L168.609 127.499L168.679 127.38L168.747 127.259L162.61 122.585ZM178.192 97.5939L184.442 102.054L184.45 102.038L184.458 102.022L178.192 97.5939ZM181.807 90.5519L188.948 92.4529L175.54 86.1234L181.807 90.5519ZM180.211 98.5922L173.07 96.6913L173.067 96.7031L173.065 96.7149L180.211 98.5922ZM178.643 120.673L171.319 121.219L171.321 121.261L171.324 121.303L178.643 120.673ZM179.87 131.809L172.597 133.005L172.6 133.029L172.603 133.053L179.87 131.809ZM179.103 143.352L176.366 151.399L183.041 154.496L185.854 146.663L179.103 143.352ZM177.869 142.779L171.048 139.67L168.367 147.687L175.131 150.826L177.869 142.779ZM192.852 116.633L198.475 122.126L198.48 122.119L198.485 122.112L192.852 116.633ZM205.966 90.3618L213.176 91.8797L213.177 91.8709L213.178 91.8622L205.966 90.3618ZM206.561 86.5694L213.279 83.0324L203.694 57.3525L199.349 85.0691L206.561 86.5694ZM207.899 90.1541L214.618 86.6199L214.617 86.6171L207.899 90.1541ZM202.687 125.694L196.434 121.238L196.426 121.253L196.419 121.269L202.687 125.694ZM194.523 140.953L200.654 145.636L200.741 145.478L200.823 145.315L194.523 140.953ZM190.152 148.841L195.756 154.36L196.041 153.961L196.282 153.524L190.152 148.841ZM182.887 154.232L175.56 153.934L175.159 164.892L184.291 162.703L182.887 154.232ZM183.032 150.292L185.183 142.007L176.113 138.819L175.704 149.993L183.032 150.292ZM193.555 148.812L197.649 155.943L197.657 155.936L197.665 155.929L193.555 148.812ZM202.887 139.674L197.55 133.797L197.547 133.801L202.887 139.674ZM217.694 116.33L211.576 111.624L211.569 111.637L211.561 111.65L217.694 116.33ZM223.304 106.274L230.517 107.769L217.186 101.568L223.304 106.274ZM221.453 118.117L214.24 116.622L214.238 116.636L214.236 116.651L221.453 118.117ZM215.859 137.667L222.487 141.304L222.507 141.253L222.527 141.202L215.859 137.667ZM206.962 155.31L201.19 150.034L201.16 150.08L201.13 150.127L206.962 155.31ZM192.784 168.177L190.172 160.126L190.114 160.153L190.056 160.181L192.784 168.177ZM174.731 166.616L171.358 158.975L159.706 166.203L170.95 174.061L174.731 166.616ZM177.606 164.833L184.906 165.595L186.209 149.762L174.233 157.191L177.606 164.833ZM169.651 180.901L164.971 174.292L164.965 174.297L169.651 180.901ZM156.631 190.126L159.608 197.996L159.633 197.982L159.659 197.968L156.631 190.126ZM128.805 202.237L126.236 194.166L126.202 194.182L126.167 194.198L128.805 202.237ZM125.023 203.992L119.21 198.779L103.27 223.353L127.661 212.031L125.023 203.992ZM127.489 200.19L121.69 194.956L121.683 194.967L121.676 194.978L127.489 200.19ZM146.701 185.34L150.705 192.542L150.783 192.481L150.858 192.419L146.701 185.34ZM155.724 177.328L151.184 170.585L151.179 170.59L151.174 170.595L155.724 177.328ZM163.862 168.353L158.836 162.109L158.711 162.249L158.591 162.395L163.862 168.353ZM164.385 167.768L170.655 172.191L172.356 168.873L171.404 165.186L164.385 167.768ZM156.619 177.891L161.532 184.26L161.646 184.137L161.756 184.009L156.619 177.891ZM147.807 186.577L143.489 179.634L143.462 179.658L143.435 179.681L147.807 186.577ZM129.502 201.456L123.642 206.713L129.433 215.721L135.311 206.675L129.502 201.456ZM128.187 199.41L125.401 191.442L116.615 195.781L122.327 204.667L128.187 199.41ZM155.578 186.483L158.726 194.258L158.736 194.253L158.746 194.247L155.578 186.483ZM173.991 164.187L181.303 164.793L181.307 164.732L181.31 164.671L173.991 164.187ZM174.181 160.716L177.676 153.081L167.602 146.748L166.862 160.231L174.181 160.716ZM176.866 162.404L180.422 154.808L180.392 154.788L180.36 154.769L176.866 162.404ZM203.915 152.074L198.084 146.889L198.046 146.949L198.008 147.009L203.915 152.074ZM212.283 135.284L218.918 138.903L218.939 138.85L218.959 138.796L212.283 135.284ZM217.624 116.929L220.418 108.909L212.159 104.982L210.428 115.327L217.624 116.929ZM221.383 118.717L227.422 123.563L232.581 114.693L224.177 110.697L221.383 118.717ZM205.829 142.505L200.559 136.546L200.535 136.575L200.512 136.605L205.829 142.505ZM195.805 152.158L199.676 159.461L199.757 159.4L199.838 159.337L195.805 152.158ZM182.158 153.876L179.857 162.106L179.863 162.109L179.87 162.111L182.158 153.876ZM175.636 151.401L174.232 142.931L146.709 149.531L173.334 159.632L175.636 151.401ZM182.305 149.802L180.961 141.318L180.932 141.325L180.902 141.332L182.305 149.802ZM187.837 145.828L193.234 151.627L193.577 151.184L193.865 150.691L187.837 145.828ZM192.022 138.67L198.05 143.533L198.136 143.386L198.216 143.236L192.022 138.67ZM206.827 107.771L199.74 105.617L199.727 105.675L199.714 105.733L206.827 107.771ZM206.239 90.8383L205.391 82.2609L195.839 83.6669L199.437 94.1411L206.239 90.8383ZM208.117 90.5619L215.343 91.9658L217.02 80.5492L207.269 81.9845L208.117 90.5619ZM179.336 143.091L176.598 151.138L183.636 154.404L186.229 145.976L179.336 143.091ZM178.101 142.519L171.3 139.35L168.55 147.403L175.364 150.565L178.101 142.519ZM177.283 120.631L184.607 120.098L184.599 119.904L184.582 119.712L177.283 120.631ZM178.186 97.8611L180.849 89.7806L172.671 86.1061L170.987 96.2757L178.186 97.8611ZM180.263 98.7944L186.649 102.982L190.812 94.2566L182.927 90.7139L180.263 98.7944ZM165.405 124.41L171.585 129.004L171.625 128.928L171.665 128.852L165.405 124.41ZM170.629 157.264L167.981 165.351L175.971 151.287L170.629 157.264ZM163.386 154.031L160.682 162.094L160.71 162.106L160.738 162.119L163.386 154.031ZM149.796 153.211L147.502 145.024L147.448 145.045L147.395 145.067L149.796 153.211ZM136.153 159.876L133.019 152.093L132.933 152.142L132.847 152.193L136.153 159.876ZM108.865 175.815L101.535 176.19L101.834 186.258L110.234 184.293L108.865 175.815ZM108.768 172.536L109.934 163.99L101.126 162.407L101.438 172.911L108.768 172.536ZM136.991 175.747L136.981 167.103L136.936 167.104L136.892 167.105L136.991 175.747ZM150.984 173.772L149.326 165.369L149.304 165.375L149.281 165.382L150.984 173.772ZM164.333 167.566L171.352 164.984L168.771 154.992L160.913 159.954L164.333 167.566ZM159.473 161.428C157.213 163.612 153.554 165.471 149.21 167.073L153.482 183.569C158.171 181.84 164.138 179.183 168.716 174.758L159.473 161.428ZM149.264 167.054C145.262 168.49 141.068 169.309 136.758 169.594L137.454 186.855C142.798 186.502 148.17 185.476 153.429 183.588L149.264 167.054ZM136.758 169.594C127.871 170.181 118.896 168.931 109.401 167.494L107.411 184.642C116.791 186.061 127.034 187.544 137.454 186.855L136.758 169.594ZM109.368 167.489L101.229 166.302L99.305 183.459L107.444 184.647L109.368 167.489ZM101.825 183.311L109.925 181.155L106.809 164.293L98.7089 166.45L101.825 183.311ZM109.922 181.156C115.794 179.595 120.9 176.466 125.378 173.323C130.298 169.871 133.635 167.075 138.107 164.201L131.168 149.04C126.608 151.97 121.545 155.968 117.954 158.488C113.922 161.317 110.407 163.337 106.812 164.292L109.922 181.156ZM137.891 164.334C142.316 161.708 146.475 159.629 151.254 157.532L146.238 141.337C141.053 143.612 136.382 145.94 131.383 148.906L137.891 164.334ZM151.294 157.514C154.171 156.229 158.268 156.531 161.625 158.254L167.581 142.396C161.518 139.282 153.4 138.137 146.198 141.355L151.294 157.514ZM158.562 145.484L156.616 148.833L168.698 158.516L170.644 155.166L158.562 145.484ZM167.999 147.698C166.218 145.485 165.17 141.883 165.289 138.209L150.63 137.696C150.39 145.108 152.364 153.5 157.315 159.652L167.999 147.698ZM165.292 138.105C165.369 134.651 166.654 130.793 168.609 127.499L156.612 117.671C153.501 122.912 150.8 130.029 150.628 137.8L165.292 138.105ZM168.747 127.259C170.974 123.227 173.509 119.489 176.289 115.345C178.989 111.323 181.926 106.908 184.442 102.054L171.941 93.1336C169.955 96.9654 167.553 100.61 164.813 104.693C162.155 108.654 159.15 113.068 156.474 117.912L168.747 127.259ZM184.458 102.022L188.074 94.9804L175.54 86.1234L171.925 93.1654L184.458 102.022ZM174.666 88.6509L173.07 96.6913L187.352 100.493L188.948 92.4529L174.666 88.6509ZM173.065 96.7149C171.494 104.73 170.938 113.02 171.319 121.219L185.967 120.127C185.657 113.463 186.114 106.809 187.356 100.47L173.065 96.7149ZM171.324 121.303C171.544 125.329 172.254 129.921 172.597 133.005L187.142 130.614C186.635 126.049 186.145 123.384 185.962 120.043L171.324 121.303ZM172.603 133.053C172.988 136.368 172.879 138.573 172.352 140.04L185.854 146.663C187.987 140.725 187.609 134.631 187.137 130.566L172.603 133.053ZM181.841 135.305L180.606 134.732L175.131 150.826L176.366 151.399L181.841 135.305ZM184.689 145.888C187.504 137.469 192.564 130.503 198.475 122.126L187.229 111.139C181.782 118.858 174.914 128.104 171.048 139.67L184.689 145.888ZM198.485 122.112C203.721 114.659 211.174 104.501 213.176 91.8797L198.757 88.844C197.593 96.1819 193.108 102.771 187.218 111.154L198.485 122.112ZM213.178 91.8622L213.773 88.0697L199.349 85.0691L198.754 88.8615L213.178 91.8622ZM199.843 90.1064L201.181 93.691L214.617 86.6171L213.279 83.0324L199.843 90.1064ZM201.18 93.6883C202.555 97.3771 202.686 101.925 201.746 106.893L216.063 110.516C217.436 103.254 217.63 94.6995 214.618 86.6199L201.18 93.6883ZM201.746 106.893C200.836 111.707 198.943 116.392 196.434 121.238L208.939 130.15C211.881 124.468 214.66 117.932 216.063 110.516L201.746 106.893ZM196.419 121.269C195.155 123.732 193.818 126.159 192.412 128.723C191.03 131.242 189.581 133.891 188.223 136.591L200.823 145.315C202.015 142.946 203.315 140.566 204.71 138.022C206.081 135.523 207.551 132.856 208.955 130.12L196.419 121.269ZM188.392 136.27L184.021 144.157L196.282 153.524L200.654 145.636L188.392 136.27ZM184.547 143.321C183.51 144.78 182.402 145.542 181.484 145.762L184.291 162.703C189.302 161.501 193.165 158.004 195.756 154.36L184.547 143.321ZM190.215 154.531L190.359 150.591L175.704 149.993L175.56 153.934L190.215 154.531ZM180.88 158.578C186.035 160.39 192.529 160.053 197.649 155.943L189.46 141.681C188.807 142.206 187.117 142.687 185.183 142.007L180.88 158.578ZM197.665 155.929C201.234 153.047 204.965 149.66 208.226 145.546L197.547 133.801C195.324 136.605 192.572 139.168 189.444 141.695L197.665 155.929ZM208.223 145.55C214.245 137.962 219.263 129.253 223.827 121.01L211.561 111.65C207.028 119.84 202.612 127.42 197.55 133.797L208.223 145.55ZM223.812 121.036L229.422 110.98L217.186 101.568L211.576 111.624L223.812 121.036ZM216.091 104.779L214.24 116.622L228.666 119.613L230.517 107.769L216.091 104.779ZM214.236 116.651C213.335 122.525 211.498 128.18 209.192 134.132L222.527 141.202C225.032 134.734 227.449 127.55 228.671 119.584L214.236 116.651ZM209.232 134.03C206.892 139.869 204.363 145.234 201.19 150.034L212.734 160.586C216.837 154.379 219.904 147.749 222.487 141.304L209.232 134.03ZM201.13 150.127C198.274 154.569 194.476 158.149 190.172 160.126L195.397 176.227C202.55 172.942 208.485 167.195 212.794 160.493L201.13 150.127ZM190.056 160.181C186.475 161.908 181.865 161.515 178.512 159.171L170.95 174.061C178.205 179.132 187.63 179.975 195.513 176.173L190.056 160.181ZM178.104 174.258L180.978 172.475L174.233 157.191L171.358 158.975L178.104 174.258ZM170.305 164.071C170.015 167.594 168.05 171.254 164.971 174.292L174.331 187.509C179.136 182.768 184.109 175.277 184.906 165.595L170.305 164.071ZM164.965 174.297C161.715 177.511 157.928 179.93 153.603 182.283L159.659 197.968C164.403 195.387 169.586 192.2 174.336 187.504L164.965 174.297ZM153.654 182.256C149.414 184.517 145.011 186.407 140.389 188.29C135.862 190.135 130.967 192.034 126.236 194.166L131.373 210.308C135.806 208.31 140.263 206.586 145.077 204.625C149.796 202.702 154.724 200.601 159.608 197.996L153.654 182.256ZM126.167 194.198L122.386 195.953L127.661 212.031L131.442 210.276L126.167 194.198ZM130.836 209.205L133.302 205.403L121.676 194.978L119.21 198.779L130.836 209.205ZM133.288 205.425C134.746 203.192 136.915 201.591 140.363 199.349L133.36 184.228C130.134 186.326 125.281 189.456 121.69 194.956L133.288 205.425ZM140.363 199.349C143.086 197.578 147.341 195.159 150.705 192.542L142.696 178.138C139.944 180.279 137.311 181.659 133.36 184.228L140.363 199.349ZM150.858 192.419C154.099 189.759 157.246 186.917 160.275 184.061L151.174 170.595C148.296 173.307 145.425 175.895 142.543 178.261L150.858 192.419ZM160.265 184.071C163.551 180.986 166.674 177.331 169.133 174.311L158.591 162.395C156.27 165.245 153.689 168.234 151.184 170.585L160.265 184.071ZM168.888 174.598L169.121 174.338L159.069 161.848L158.836 162.109L168.888 174.598ZM158.116 163.344C156.553 166.393 154.871 167.819 151.482 171.773L161.756 184.009C163.839 181.579 167.832 177.698 170.655 172.191L158.116 163.344ZM151.706 171.522C148.926 174.505 146.304 177.189 143.489 179.634L152.126 193.521C155.555 190.542 158.62 187.385 161.532 184.26L151.706 171.522ZM143.435 179.681C140.86 181.96 138.157 183.503 134.38 186.053C130.992 188.341 126.825 191.418 123.693 196.237L135.311 206.675C136.524 204.808 138.444 203.16 141.59 201.036C144.347 199.175 148.624 196.621 152.18 193.473L143.435 179.681ZM135.362 196.199L134.047 194.153L122.327 204.667L123.642 206.713L135.362 196.199ZM130.973 207.378C135.391 205.196 139.832 203.308 144.557 201.215C149.193 199.161 154.012 196.947 158.726 194.258L152.429 178.708C148.357 181.03 144.067 183.014 139.498 185.038C135.017 187.023 130.155 189.094 125.401 191.442L130.973 207.378ZM158.746 194.247C163.231 191.671 168.216 188.447 172.464 184.011L162.789 171.113C160.072 173.95 156.539 176.347 152.41 178.719L158.746 194.247ZM172.464 184.011C176.833 179.449 180.764 172.845 181.303 164.793L166.679 163.58C166.539 165.67 165.386 168.402 162.789 171.113L172.464 184.011ZM181.31 164.671L181.501 161.201L166.862 160.231L166.672 163.702L181.31 164.671ZM170.687 168.351L173.371 170.038L180.36 154.769L177.676 153.081L170.687 168.351ZM173.309 169.999C179.735 174.134 187.332 174.798 194.246 171.554L188.921 155.499C186.208 156.772 183.164 156.572 180.422 154.808L173.309 169.999ZM194.246 171.554C200.444 168.646 205.882 163.487 209.822 157.138L198.008 147.009C195.598 150.893 192.349 153.891 188.921 155.499L194.246 171.554ZM209.747 157.258C213.452 151.498 216.441 145.118 218.918 138.903L205.649 131.664C203.441 137.206 200.957 142.423 198.084 146.889L209.747 157.258ZM218.959 138.796C221.345 132.592 223.614 125.736 224.82 118.532L210.428 115.327C209.542 120.627 207.795 126.082 205.607 131.771L218.959 138.796ZM214.83 124.95L218.589 126.737L224.177 110.697L220.418 108.909L214.83 124.95ZM215.345 113.871C210.518 122.17 206.072 129.78 200.559 136.546L211.099 148.465C217.594 140.493 222.698 131.683 227.422 123.563L215.345 113.871ZM200.512 136.605C198.076 139.65 195.057 142.397 191.772 144.978L199.838 159.337C203.593 156.386 207.632 152.799 211.146 148.406L200.512 136.605ZM191.934 144.854C189.943 146.333 187.21 146.682 184.447 145.64L179.87 162.111C185.991 164.419 193.365 164.144 199.676 159.461L191.934 144.854ZM184.46 145.645L177.937 143.171L173.334 159.632L179.857 162.106L184.46 145.645ZM177.039 159.871L183.709 158.272L180.902 141.332L174.232 142.931L177.039 159.871ZM183.65 158.286C187.699 157.355 190.992 154.52 193.234 151.627L182.44 140.028C182.089 140.481 181.731 140.826 181.423 141.053C181.111 141.282 180.948 141.321 180.961 141.318L183.65 158.286ZM193.865 150.691L198.05 143.533L185.994 133.806L181.809 140.964L193.865 150.691ZM198.216 143.236C199.518 140.804 200.899 138.424 202.355 135.929C203.785 133.478 205.304 130.888 206.742 128.246L194.414 119.001C193.132 121.356 191.764 123.691 190.291 126.215C188.844 128.695 187.306 131.34 185.828 134.103L198.216 143.236ZM206.742 128.246C209.658 122.888 212.458 116.763 213.94 109.809L199.714 105.733C198.79 110.07 196.937 114.365 194.414 119.001L206.742 128.246ZM213.915 109.925C215.499 102.901 215.556 94.8543 213.041 87.5355L199.437 94.1411C200.545 97.3636 200.671 101.487 199.74 105.617L213.915 109.925ZM207.087 99.4157L208.964 99.1393L207.269 81.9845L205.391 82.2609L207.087 99.4157ZM200.89 89.1581C200.349 92.8424 198.806 96.4462 196.517 100.419L208.631 110.047C211.414 105.217 214.281 99.1963 215.343 91.9658L200.89 89.1581ZM196.517 100.419C194.258 104.34 191.594 108.051 188.698 111.937L199.684 123.283C202.632 119.327 205.818 114.928 208.631 110.047L196.517 100.419ZM188.698 111.937C183.089 119.463 176.005 128.628 172.443 140.207L186.229 145.976C188.656 138.085 193.604 131.441 199.684 123.283L188.698 111.937ZM182.073 135.045L180.839 134.472L175.364 150.565L176.598 151.138L182.073 135.045ZM184.902 145.687C186.803 140.122 186.443 134.656 185.945 130.578C185.348 125.696 184.759 123.454 184.607 120.098L169.959 121.165C170.149 125.373 171.121 130.702 171.425 133.184C171.826 136.472 171.704 138.167 171.3 139.35L184.902 145.687ZM184.582 119.712C184.024 113.021 184.28 106.119 185.384 99.4465L170.987 96.2757C169.603 104.636 169.288 113.227 169.984 121.551L184.582 119.712ZM175.522 105.942L177.599 106.875L182.927 90.7139L180.849 89.7806L175.522 105.942ZM173.877 94.6067C171.924 98.7002 169.569 102.563 166.958 106.739C164.43 110.784 161.579 115.246 159.145 119.967L171.665 128.852C173.675 124.953 176.053 121.219 178.742 116.917C181.349 112.747 184.201 108.113 186.649 102.982L173.877 94.6067ZM159.225 119.816C156.424 125.007 154.375 130.986 154.147 137.653L168.805 138.201C168.901 135.385 169.773 132.361 171.585 129.004L159.225 119.816ZM154.147 137.653C153.914 144.466 155.853 151.518 159.99 156.659L170.674 144.705C169.514 143.264 168.713 140.872 168.805 138.201L154.147 137.653ZM159.99 156.659L165.287 163.241L175.971 151.287L170.674 144.705L159.99 156.659ZM173.277 149.176L166.035 145.944L160.738 162.119L167.981 165.351L173.277 149.176ZM166.09 145.969C160.381 143.358 154.048 142.417 147.502 145.024L152.09 161.398C154.583 160.405 157.298 160.546 160.682 162.094L166.09 145.969ZM147.395 145.067C142.706 147.029 137.529 149.535 133.019 152.093L139.287 167.66C143.275 165.399 147.958 163.128 152.197 161.354L147.395 145.067ZM132.847 152.193C128.416 154.874 123.278 158.896 119.611 161.404C115.468 164.238 111.626 166.37 107.496 167.336L110.234 184.293C116.706 182.778 122.197 179.55 126.893 176.338C132.063 172.802 135.268 170.095 139.458 167.559L132.847 152.193ZM116.195 175.439L116.098 172.16L101.438 172.911L101.535 176.19L116.195 175.439ZM107.602 181.081C116.872 182.748 126.912 184.653 137.09 184.389L136.892 167.105C128.234 167.329 119.527 165.714 109.934 163.99L107.602 181.081ZM137.001 184.391C142.171 184.33 147.47 183.682 152.686 182.163L149.281 165.382C145.366 166.522 141.226 167.053 136.981 167.103L137.001 184.391ZM152.641 182.176C158.076 180.635 162.799 178.306 167.754 175.178L160.913 159.954C156.781 162.562 153.25 164.256 149.326 165.369L152.641 182.176ZM157.315 170.147L157.367 170.349L171.404 165.186L171.352 164.984L157.315 170.147Z" fill="#F2EAD3" mask="url(#path-25-inside-10_19_92)"/>
<mask id="path-27-inside-11_19_92" fill="white">
<path d="M125.694 125.323C125.884 121.852 126.412 118.526 127.506 115.217C128.6 111.908 130.598 108.76 133.31 106.638C138.385 102.783 144.884 101.245 150.503 103.558C144.856 105.055 139.874 107.241 135.491 110.583C131.284 113.595 128.998 119.541 125.639 125.254L125.694 125.323Z"/>
</mask>
<path d="M125.694 125.323C125.884 121.852 126.412 118.526 127.506 115.217C128.6 111.908 130.598 108.76 133.31 106.638C138.385 102.783 144.884 101.245 150.503 103.558C144.856 105.055 139.874 107.241 135.491 110.583C131.284 113.595 128.998 119.541 125.639 125.254L125.694 125.323Z" fill="#FFFAD7"/>
<path d="M125.694 125.323L120.352 131.3L131.923 145.676L133.013 125.807L125.694 125.323ZM133.31 106.638L129.374 99.3832L129.331 99.4158L129.289 99.449L133.31 106.638ZM150.503 103.558L152.054 111.991L177.137 105.341L152.974 95.3948L150.503 103.558ZM135.491 110.583L139.26 117.959L139.349 117.896L139.436 117.829L135.491 110.583ZM125.639 125.254L119.622 120.372L116.217 126.162L120.297 131.231L125.639 125.254ZM133.013 125.807C133.166 123.031 133.572 120.609 134.337 118.295L120.675 112.138C119.252 116.442 118.603 120.674 118.375 124.838L133.013 125.807ZM134.337 118.295C134.928 116.509 136.005 114.864 137.331 113.826L129.289 99.449C125.191 102.656 122.272 107.307 120.675 112.138L134.337 118.295ZM137.246 113.892C140.835 111.166 144.977 110.464 148.032 111.722L152.974 95.3948C144.791 92.0265 135.936 94.3996 129.374 99.3832L137.246 113.892ZM148.951 95.1256C142.718 96.7781 136.859 99.2853 131.545 103.336L139.436 117.829C142.889 115.198 146.994 113.333 152.054 111.991L148.951 95.1256ZM131.721 103.206C128.294 105.66 125.958 109.088 124.232 112.019C123.362 113.498 122.538 115.045 121.807 116.413C121.045 117.838 120.355 119.124 119.622 120.372L131.656 130.137C132.602 128.528 133.457 126.928 134.2 125.538C134.974 124.089 135.615 122.891 136.261 121.793C137.57 119.569 138.481 118.518 139.26 117.959L131.721 103.206ZM120.297 131.231L120.352 131.3L131.036 119.346L130.981 119.277L120.297 131.231Z" fill="#F2EAD3" mask="url(#path-27-inside-11_19_92)"/>
<mask id="path-29-inside-12_19_92" fill="white">
<path d="M127.625 94.4948C127.09 90.5338 128.655 86.437 130.99 83.4337C133.383 80.3654 136.658 78.394 139.975 77.1592C146.552 74.6212 153.406 74.8997 159.187 72.4708C164.962 70.3091 169.797 64.5082 176.715 61.9806C183.638 59.1859 191.717 63.0456 194.791 70.1604C190.327 64.3398 183.223 62.5159 177.715 65.4212C172.097 68.1894 167.372 74.1275 160.505 76.9908C153.698 79.6555 146.962 79.1132 140.859 80.7299C134.875 82.0829 128.707 86.6392 127.736 94.632L127.625 94.4948Z"/>
</mask>
<path d="M127.625 94.4948C127.09 90.5338 128.655 86.437 130.99 83.4337C133.383 80.3654 136.658 78.394 139.975 77.1592C146.552 74.6212 153.406 74.8997 159.187 72.4708C164.962 70.3091 169.797 64.5082 176.715 61.9806C183.638 59.1859 191.717 63.0456 194.791 70.1604C190.327 64.3398 183.223 62.5159 177.715 65.4212C172.097 68.1894 167.372 74.1275 160.505 76.9908C153.698 79.6555 146.962 79.1132 140.859 80.7299C134.875 82.0829 128.707 86.6392 127.736 94.632L127.625 94.4948Z" fill="#FFFAD7"/>
<path d="M127.625 94.4948L120.382 95.9265L120.737 98.55L122.283 100.472L127.625 94.4948ZM130.99 83.4337L125.609 77.6137L125.601 77.6239L130.99 83.4337ZM139.975 77.1592L142.13 85.3998L142.166 85.3862L142.203 85.3721L139.975 77.1592ZM159.187 72.4708L157.021 64.2342L156.898 64.2802L156.777 64.3313L159.187 72.4708ZM176.715 61.9806L178.832 70.2352L178.936 70.1973L179.038 70.1559L176.715 61.9806ZM194.791 70.1604L189.331 75.9865L201.333 66.1859L194.791 70.1604ZM177.715 65.4212L180.495 73.3923L180.58 73.3505L180.664 73.3062L177.715 65.4212ZM160.505 76.9908L162.763 85.192L162.831 85.1655L162.898 85.1374L160.505 76.9908ZM140.859 80.7299L142.182 89.2188L142.296 89.193L142.409 89.1629L140.859 80.7299ZM127.736 94.632L122.394 100.609L132.834 113.58L134.996 95.7859L127.736 94.632ZM134.869 93.0632C134.802 92.5684 134.988 91.0323 136.378 89.2436L125.601 77.6239C122.322 81.8418 119.377 88.4992 120.382 95.9265L134.869 93.0632ZM136.37 89.2538C137.58 87.7026 139.533 86.3666 142.13 85.3998L137.819 68.9186C133.783 70.4214 129.185 73.0281 125.609 77.6137L136.37 89.2538ZM142.203 85.3721C144.781 84.3773 147.502 83.8986 150.861 83.3304C153.972 82.804 157.887 82.1695 161.598 80.6102L156.777 64.3313C154.707 65.201 152.304 65.6417 148.898 66.2178C145.74 66.7521 141.745 67.4031 137.746 68.9464L142.203 85.3721ZM161.353 80.7074C165.298 79.2306 168.798 76.5573 171.341 74.705C174.158 72.6527 176.374 71.1334 178.832 70.2352L174.597 53.7261C170.138 55.3555 166.478 58.0004 163.705 60.0208C160.657 62.2413 158.851 63.5493 157.021 64.2342L161.353 80.7074ZM179.038 70.1559C182.634 68.7043 186.877 70.9584 188.249 74.1348L201.333 66.1859C196.557 55.1327 184.641 49.6674 174.391 53.8054L179.038 70.1559ZM200.251 64.3343C193.847 55.9835 183.41 52.9772 174.767 57.5362L180.664 73.3062C183.037 72.0546 186.807 72.6961 189.331 75.9865L200.251 64.3343ZM174.936 57.4502C171.272 59.2552 167.95 62.0717 165.501 64.026C162.799 66.183 160.577 67.816 158.111 68.8442L162.898 85.1374C167.3 83.3023 170.874 80.5346 173.656 78.3147C176.691 75.8921 178.541 74.3554 180.495 73.3923L174.936 57.4502ZM158.246 68.7896C155.645 69.808 152.925 70.2673 149.729 70.6546C146.772 71.013 142.916 71.3414 139.309 72.2969L142.409 89.1629C144.905 88.5017 147.469 88.2929 151.107 87.8521C154.506 87.4402 158.558 86.8382 162.763 85.192L158.246 68.7896ZM139.537 72.241C132.101 73.9223 122.093 80.1674 120.475 93.478L134.996 95.7859C135.176 94.3025 135.804 93.0382 137.011 91.8835C138.304 90.6468 140.153 89.6774 142.182 89.2188L139.537 72.241ZM133.077 88.655L132.967 88.5179L122.283 100.472L122.394 100.609L133.077 88.655Z" fill="#F2EAD3" mask="url(#path-29-inside-12_19_92)"/>
<mask id="path-31-inside-13_19_92" fill="white">
<path d="M165.477 95.6637C165.22 91.9119 167.563 88.5077 170.159 86.5153C172.868 84.5264 175.952 83.5519 178.704 82.1661C184.207 79.528 188.46 74.3777 193.051 69.3715C197.528 64.3618 203.412 59.8635 210.34 59.4088C213.803 59.1815 217.458 60.5646 220.177 63.2559C222.896 65.9473 224.687 69.546 225.679 73.3874C227.489 81.2655 226.238 89.049 224.436 96.147C222.463 103.307 219.592 110.037 215.887 116.007C208.529 128.148 199.02 137.615 189.351 146.61C197.916 136.244 206.819 126.023 213.38 113.991C216.576 107.938 219.38 101.674 221.005 94.9045C222.627 88.269 223.525 81.0094 221.907 74.7418C220.515 68.4812 215.978 63.3937 210.471 63.6917C204.912 63.7875 199.665 67.7037 195.031 72.1069C190.339 76.5751 185.516 81.8415 179.395 84.2599C176.422 85.3715 173.347 85.9452 170.702 87.6018C168.115 89.1933 165.673 91.9259 165.477 95.6637Z"/>
</mask>
<path d="M165.477 95.6637C165.22 91.9119 167.563 88.5077 170.159 86.5153C172.868 84.5264 175.952 83.5519 178.704 82.1661C184.207 79.528 188.46 74.3777 193.051 69.3715C197.528 64.3618 203.412 59.8635 210.34 59.4088C213.803 59.1815 217.458 60.5646 220.177 63.2559C222.896 65.9473 224.687 69.546 225.679 73.3874C227.489 81.2655 226.238 89.049 224.436 96.147C222.463 103.307 219.592 110.037 215.887 116.007C208.529 128.148 199.02 137.615 189.351 146.61C197.916 136.244 206.819 126.023 213.38 113.991C216.576 107.938 219.38 101.674 221.005 94.9045C222.627 88.269 223.525 81.0094 221.907 74.7418C220.515 68.4812 215.978 63.3937 210.471 63.6917C204.912 63.7875 199.665 67.7037 195.031 72.1069C190.339 76.5751 185.516 81.8415 179.395 84.2599C176.422 85.3715 173.347 85.9452 170.702 87.6018C168.115 89.1933 165.673 91.9259 165.477 95.6637Z" fill="#FFFAD7"/>
<path d="M165.477 95.6637L158.166 96.432L172.797 96.1247L165.477 95.6637ZM170.159 86.5153L166.32 79.1891L166.256 79.2357L166.193 79.2838L170.159 86.5153ZM178.704 82.1661L175.99 74.1631L175.931 74.1916L175.872 74.2213L178.704 82.1661ZM193.051 69.3715L198.007 75.693L198.042 75.6549L198.077 75.6163L193.051 69.3715ZM225.679 73.3874L232.76 71.0624L232.73 70.9336L232.697 70.8061L225.679 73.3874ZM224.436 96.147L231.41 98.7542L231.437 98.6573L231.462 98.5599L224.436 96.147ZM215.887 116.007L209.98 110.942L209.955 110.982L209.93 111.023L215.887 116.007ZM189.351 146.61L184.118 140.606L193.865 153.378L189.351 146.61ZM213.38 113.991L219.54 118.62L219.569 118.567L219.598 118.513L213.38 113.991ZM221.005 94.9045L213.958 92.5777L213.953 92.5977L213.949 92.6177L221.005 94.9045ZM221.907 74.7418L214.81 76.9994L214.847 77.1622L214.888 77.3231L221.907 74.7418ZM210.471 63.6917L210.516 72.335L210.631 72.333L210.745 72.3268L210.471 63.6917ZM195.031 72.1069L190.457 65.3957L190.451 65.4016L195.031 72.1069ZM179.395 84.2599L181.559 92.4974L181.616 92.476L181.673 92.4534L179.395 84.2599ZM170.702 87.6018L174.053 95.2574L174.077 95.2426L174.101 95.2275L170.702 87.6018ZM172.787 94.8955C172.823 95.4111 172.646 95.5287 172.86 95.1467C173.087 94.7407 173.533 94.2011 174.125 93.7468L166.193 79.2838C162.655 81.9994 157.588 87.9959 158.166 96.432L172.787 94.8955ZM173.999 93.8415C174.769 93.2762 175.715 92.7666 177.021 92.1687C178.062 91.692 180.049 90.86 181.537 90.1108L175.872 74.2213C174.607 74.858 173.677 75.2062 171.811 76.0604C170.21 76.7934 168.259 77.7655 166.32 79.1891L173.999 93.8415ZM181.419 90.169C188.492 86.7774 193.93 80.1401 198.007 75.693L188.094 63.0499C182.991 68.6152 179.921 72.2785 175.99 74.1631L181.419 90.169ZM198.077 75.6163C201.946 71.2867 206.24 68.3313 210.685 68.0396L209.994 50.778C200.583 51.3957 193.11 57.4368 188.025 63.1267L198.077 75.6163ZM210.685 68.0396C212.323 67.9321 214.151 68.6273 215.431 69.8945L224.923 56.6174C220.765 52.5019 215.284 50.4309 209.994 50.778L210.685 68.0396ZM215.431 69.8945C216.897 71.345 218.004 73.4258 218.661 75.9687L232.697 70.8061C231.37 65.6661 228.895 60.5496 224.923 56.6174L215.431 69.8945ZM218.598 75.7124C219.865 81.2291 219.095 87.1018 217.411 93.7342L231.462 98.5599C233.382 90.9963 235.112 81.3018 232.76 71.0624L218.598 75.7124ZM217.462 93.5399C215.718 99.869 213.195 105.762 209.98 110.942L221.794 121.071C225.988 114.313 229.208 106.744 231.41 98.7542L217.462 93.5399ZM209.93 111.023C203.231 122.078 194.452 130.898 184.837 139.842L193.865 153.378C203.588 144.333 213.828 134.218 221.843 120.991L209.93 111.023ZM194.584 152.614C202.907 142.541 212.475 131.578 219.54 118.62L207.22 109.361C201.163 120.468 192.925 129.947 184.118 140.606L194.584 152.614ZM219.598 118.513C222.953 112.16 226.165 105.096 228.062 97.1914L213.949 92.6177C212.596 98.2519 210.2 103.717 207.162 109.468L219.598 118.513ZM228.052 97.2314C229.795 90.0969 231.169 80.8489 228.925 72.1605L214.888 77.3231C215.882 81.1699 215.458 86.441 213.958 92.5777L228.052 97.2314ZM229.003 72.4841C226.989 63.4269 220.033 54.5244 210.197 55.0566L210.745 72.3268C211.399 72.2914 212.143 72.5446 212.931 73.3402C213.756 74.1742 214.472 75.4765 214.81 76.9994L229.003 72.4841ZM210.427 55.0484C202.185 55.1905 195.223 60.8673 190.457 65.3957L199.605 78.8181C204.107 74.5402 207.64 72.3845 210.516 72.335L210.427 55.0484ZM190.451 65.4016C185.145 70.4543 181.631 74.2828 177.117 76.0664L181.673 92.4534C189.401 89.4002 195.533 82.6959 199.612 78.8122L190.451 65.4016ZM177.232 76.0224C175.842 76.542 174.921 76.766 172.989 77.4089C171.359 77.951 169.329 78.7078 167.303 79.9761L174.101 95.2275C174.721 94.8391 175.55 94.4808 176.863 94.044C177.872 93.7081 179.975 93.0895 181.559 92.4974L177.232 76.0224ZM167.352 79.9461C163.804 82.1285 158.588 86.9882 158.156 95.2028L172.797 96.1247C172.791 96.2502 172.762 96.3648 172.737 96.4347C172.716 96.4922 172.719 96.4582 172.8 96.3434C172.99 96.0763 173.401 95.6581 174.053 95.2574L167.352 79.9461Z" fill="#F2EAD3" mask="url(#path-31-inside-13_19_92)"/>
<path d="M176.92 165.079C192.293 213.289 214.481 266.122 244.496 303.553C274.511 340.983 315.756 368.063 359.445 369.345" fill="#FFFAD7"/>
<path d="M176.92 165.079C192.293 213.289 214.481 266.122 244.496 303.553C274.511 340.983 315.756 368.063 359.445 369.345" stroke="#F2EAD3" stroke-width="4.00809" stroke-miterlimit="10"/>
<path d="M258.554 324.177C250.867 312.842 238.66 305.913 226.35 306.134C215.802 306.21 205.542 311.175 195.052 311.185C199.878 318.555 204.818 325.928 210.865 331.931C216.912 337.934 224.239 342.506 232.162 343.152C244.105 344.122 255.224 336.242 258.609 324.246L258.554 324.177Z" fill="#FFFAD7" stroke="#F2EAD3" stroke-width="4.00809" stroke-miterlimit="10"/>
<path d="M177.257 259.691C172.281 248.841 165.126 239.126 156.138 232.765C147.15 226.403 136.333 223.261 126.028 225.149C113.104 227.491 100.924 237.211 88.0556 234.54C104.4 244.137 108.266 271.735 124.491 281.595C133.162 286.877 143.903 285.805 152.96 281.405C162.016 277.004 169.778 269.622 177.315 259.626L177.257 259.691Z" fill="#FFFAD7" stroke="#F2EAD3" stroke-width="4.00809" stroke-miterlimit="10"/>
<path d="M281.585 267.526C277.902 264.871 274.221 262.083 271.413 258.32C268.605 254.556 266.562 249.545 266.843 244.54C267.081 238.931 269.969 234.006 273.013 229.688C277.575 223.41 282.858 217.891 287.086 211.336C291.314 204.78 294.497 196.789 293.943 188.549C298.855 197.124 303.3 206.354 305.515 216.384C307.731 226.414 307.714 237.378 304.101 246.894C300.487 256.409 292.891 263.997 281.699 267.529L281.585 267.526Z" fill="#FFFAD7" stroke="#F2EAD3" stroke-width="4.00809" stroke-miterlimit="10"/>
<path d="M306.918 344.724C298.456 337.643 294.781 324.426 295.902 312.226C297.023 300.026 302.541 289.031 309.38 279.816C313.003 274.98 317.128 270.495 319.973 264.966C322.817 259.438 323.085 252.494 322.312 246.453C326.056 256.597 329.464 269.07 331.072 280.953C332.679 292.837 332.002 305.452 327.565 316.279C323.254 326.575 315.649 334.564 306.976 344.659L306.918 344.724Z" fill="#FFFAD7" stroke="#F2EAD3" stroke-width="4.00809" stroke-miterlimit="10"/>
<path d="M269.492 235.061C266.652 230.159 259.445 225.324 254.409 224.834C249.373 224.344 244.302 225.458 239.252 225.636C234.201 225.815 231.958 224.676 224.832 221.314C236.06 234.029 238.247 255.557 250.467 267.032C259.241 275.326 272.375 276.266 281.997 269.41" fill="#FFFAD7"/>
<path d="M269.492 235.061C266.652 230.159 259.445 225.324 254.409 224.834C249.373 224.344 244.302 225.458 239.252 225.636C234.201 225.815 231.958 224.676 224.832 221.314C236.06 234.029 238.247 255.557 250.467 267.032C259.241 275.326 272.375 276.266 281.997 269.41" stroke="#F2EAD3" stroke-width="4.00809" stroke-miterlimit="10"/>
<path d="M223.457 273.018C209.12 264.953 193.169 260.65 177.294 260.561Z" fill="#FFFAD7"/>
<path d="M223.457 273.018C209.12 264.953 193.169 260.65 177.294 260.561" stroke="#F2EAD3" stroke-width="4.00809" stroke-miterlimit="10"/>
<path d="M318.136 360.448C305.398 351.898 296.373 336.978 290.888 320.964C285.404 304.949 281.996 284.787 279.824 267.672" fill="#FFFAD7"/>
<path d="M318.136 360.448C305.398 351.898 296.373 336.978 290.888 320.964C285.404 304.949 281.996 284.787 279.824 267.672" stroke="#F2EAD3" stroke-width="4.00809" stroke-miterlimit="10"/>
<mask id="path-45-inside-14_19_92" fill="white">
<path d="M174.745 263.023C155.91 253.216 135.761 246.443 115.137 243.199C135.907 244.976 156.545 250.16 176.203 258.656L174.745 263.023Z"/>
</mask>
<path d="M174.745 263.023C155.91 253.216 135.761 246.443 115.137 243.199C135.907 244.976 156.545 250.16 176.203 258.656L174.745 263.023Z" fill="#FFFAD7"/>
<path d="M174.745 263.023L171.733 270.935L178.744 274.586L181.567 266.128L174.745 263.023ZM115.137 243.199L115.73 234.577L114.106 251.767L115.137 243.199ZM176.203 258.656L183.025 261.761L185.764 253.556L178.78 250.537L176.203 258.656ZM177.757 255.112C158.306 244.983 137.491 237.984 116.168 234.63L114.106 251.767C134.031 254.901 153.515 261.448 171.733 270.935L177.757 255.112ZM114.544 251.82C134.642 253.54 154.612 258.557 173.626 266.775L178.78 250.537C158.479 241.763 137.173 236.412 115.73 234.577L114.544 251.82ZM169.38 255.551L167.922 259.918L181.567 266.128L183.025 261.761L169.38 255.551Z" fill="#F2EAD3" mask="url(#path-45-inside-14_19_92)"/>
<mask id="path-47-inside-15_19_92" fill="white">
<path d="M256.524 326.187C243.067 327.042 229.623 324.755 217.15 319.556C229.998 323.162 243.365 323.842 256.175 321.496L256.58 326.256L256.524 326.187Z"/>
</mask>
<path d="M256.524 326.187C243.067 327.042 229.623 324.755 217.15 319.556C229.998 323.162 243.365 323.842 256.175 321.496L256.58 326.256L256.524 326.187Z" fill="#FFFAD7"/>
<path d="M256.524 326.187L261.866 320.21L259.558 317.342L256.192 317.555L256.524 326.187ZM217.15 319.556L218.907 311.146L214.652 327.708L217.15 319.556ZM256.175 321.496L263.473 320.562L262.708 311.563L255.109 312.955L256.175 321.496ZM256.58 326.256L251.238 332.232L266.028 350.609L263.878 325.321L256.58 326.256ZM256.192 317.555C243.693 318.349 231.21 316.223 219.648 311.404L214.652 327.708C228.035 333.286 242.441 335.734 256.857 334.819L256.192 317.555ZM215.394 327.966C229.136 331.823 243.461 332.561 257.241 330.038L255.109 312.955C243.268 315.123 230.86 314.501 218.907 311.146L215.394 327.966ZM248.877 322.431L249.282 327.19L263.878 325.321L263.473 320.562L248.877 322.431ZM261.921 320.279L261.866 320.21L251.183 332.164L251.238 332.232L261.921 320.279Z" fill="#F2EAD3" mask="url(#path-47-inside-15_19_92)"/>
<mask id="path-49-inside-16_19_92" fill="white">
<path d="M265.973 253.071C256.893 250.852 248.617 245.649 242.256 238.432C249.495 244.406 258.037 247.878 266.53 248.408L265.973 253.071Z"/>
</mask>
<path d="M265.973 253.071C256.893 250.852 248.617 245.649 242.256 238.432C249.495 244.406 258.037 247.878 266.53 248.408L265.973 253.071Z" fill="#FFFAD7"/>
<path d="M265.973 253.071L264.425 261.535L272.135 263.42L273.236 254.205L265.973 253.071ZM242.256 238.432L246.497 231.337L237.146 244.684L242.256 238.432ZM266.53 248.408L273.793 249.542L274.901 240.27L266.98 239.776L266.53 248.408ZM267.521 244.606C259.777 242.713 252.737 238.273 247.366 232.18L237.146 244.684C244.497 253.024 254.009 258.99 264.425 261.535L267.521 244.606ZM238.015 245.527C246.341 252.398 256.19 256.423 266.08 257.04L266.98 239.776C259.883 239.333 252.649 236.413 246.497 231.337L238.015 245.527ZM259.267 247.274L258.71 251.937L273.236 254.205L273.793 249.542L259.267 247.274Z" fill="#F2EAD3" mask="url(#path-49-inside-16_19_92)"/>
<mask id="path-51-inside-17_19_92" fill="white">
<path d="M278.946 263.834C287.89 251.742 292.852 235.114 292.203 218.38C294.218 234.889 290.705 252.631 282.115 266.673L279.004 263.769L278.946 263.834Z"/>
</mask>
<path d="M278.946 263.834C287.89 251.742 292.852 235.114 292.203 218.38C294.218 234.889 290.705 252.631 282.115 266.673L279.004 263.769L278.946 263.834Z" fill="#FFFAD7"/>
<path d="M278.946 263.834L273.435 258.185L283.972 270.079L278.946 263.834ZM292.203 218.38L299.463 217.078L284.876 218.848L292.203 218.38ZM282.115 266.673L277.531 273.467L283.535 279.072L288.052 271.689L282.115 266.673ZM279.004 263.769L283.588 256.975L278.617 252.334L273.978 257.524L279.004 263.769ZM284.457 269.482C294.678 255.664 300.264 236.833 299.53 217.912L284.876 218.848C285.44 233.395 281.102 247.819 273.435 258.185L284.457 269.482ZM284.943 219.682C286.693 234.017 283.625 249.484 276.178 261.657L288.052 271.689C297.786 255.778 301.743 235.761 299.463 217.078L284.943 219.682ZM286.699 259.879L283.588 256.975L274.42 270.563L277.531 273.467L286.699 259.879ZM273.978 257.524L273.92 257.589L283.972 270.079L284.03 270.014L273.978 257.524Z" fill="#F2EAD3" mask="url(#path-51-inside-17_19_92)"/>
<mask id="path-53-inside-18_19_92" fill="white">
<path d="M304.788 343.589C302.073 333.075 302.886 322.002 305.265 311.913C307.644 301.825 311.594 292.453 315.428 283.212C312.155 292.738 308.878 302.398 307.18 312.507C305.484 322.483 305.534 332.981 308.564 342.101L304.788 343.589Z"/>
</mask>
<path d="M304.788 343.589C302.073 333.075 302.886 322.002 305.265 311.913C307.644 301.825 311.594 292.453 315.428 283.212C312.155 292.738 308.878 302.398 307.18 312.507C305.484 322.483 305.534 332.981 308.564 342.101L304.788 343.589Z" fill="#FFFAD7"/>
<path d="M304.788 343.589L297.77 346.17L299.944 354.589L307.061 351.784L304.788 343.589ZM315.428 283.212L322.223 286.397L308.845 279.468L315.428 283.212ZM307.18 312.507L314.371 314.136L314.373 314.126L314.374 314.117L307.18 312.507ZM308.564 342.101L310.836 350.296L318.219 347.386L315.397 338.89L308.564 342.101ZM311.807 341.007C309.625 332.557 310.187 323.254 312.331 314.162L298.199 309.665C295.586 320.751 294.522 333.593 297.77 346.17L311.807 341.007ZM312.331 314.162C314.493 304.991 318.108 296.366 322.012 286.955L308.845 279.468C305.081 288.54 300.795 298.658 298.199 309.665L312.331 314.162ZM308.633 280.026C305.393 289.455 301.841 299.855 299.985 310.898L314.374 314.117C315.916 304.94 318.917 296.02 322.223 286.397L308.633 280.026ZM299.988 310.879C298.113 321.91 298.038 334.195 301.731 345.311L315.397 338.89C313.031 331.768 312.854 323.057 314.371 314.136L299.988 310.879ZM306.291 333.905L302.516 335.393L307.061 351.784L310.836 350.296L306.291 333.905Z" fill="#F2EAD3" mask="url(#path-53-inside-18_19_92)"/>
</g>
</svg>
